<?xml version="1.0" encoding="utf-8"?>
<svg xmlns="http://www.w3.org/2000/svg" xmlns:xlink="http://www.w3.org/1999/xlink" width="2400" height="650" viewBox="0 0 9600 2600">
<defs>
  <clipPath id="clip560">
    <rect x="0" y="0" width="9600" height="2600"/>
  </clipPath>
</defs>
<path clip-path="url(#clip560)" d="
M0 2600 L9600 2600 L9600 0 L0 0  Z
  " fill="#ffffff" fill-rule="evenodd" fill-opacity="1"/>
<defs>
  <clipPath id="clip561">
    <rect x="1920" y="0" width="6721" height="2600"/>
  </clipPath>
</defs>
<path clip-path="url(#clip560)" d="
M158.992 2344.51 L2211.02 2344.51 L2211.02 292.48 L158.992 292.48  Z
  " fill="#ffffff" fill-rule="evenodd" fill-opacity="1"/>
<defs>
  <clipPath id="clip562">
    <rect x="158" y="292" width="2053" height="2053"/>
  </clipPath>
</defs>
<polyline clip-path="url(#clip560)" style="stroke:#000000; stroke-width:4; stroke-opacity:1; fill:none" points="
  158.992,2344.51 2211.02,2344.51 
  "/>
<polyline clip-path="url(#clip560)" style="stroke:#000000; stroke-width:4; stroke-opacity:1; fill:none" points="
  158.992,292.48 2211.02,292.48 
  "/>
<path clip-path="url(#clip560)" d="M 0 0 M1070.02 2460.97 L1070.02 2479.38 L1091.95 2479.38 L1091.95 2487.65 L1070.02 2487.65 L1070.02 2522.84 Q1070.02 2530.77 1072.16 2533.02 Q1074.36 2535.28 1081.02 2535.28 L1091.95 2535.28 L1091.95 2544.19 L1081.02 2544.19 Q1068.69 2544.19 1064 2539.62 Q1059.31 2534.99 1059.31 2522.84 L1059.31 2487.65 L1051.5 2487.65 L1051.5 2479.38 L1059.31 2479.38 L1059.31 2460.97 L1070.02 2460.97 Z" fill="#000000" fill-rule="evenodd" fill-opacity="1" /><path clip-path="url(#clip560)" d="M 0 0 M1142.18 2490.37 L1216.37 2490.37 L1216.37 2500.09 L1142.18 2500.09 L1142.18 2490.37 M1142.18 2513.98 L1216.37 2513.98 L1216.37 2523.82 L1142.18 2523.82 L1142.18 2513.98 Z" fill="#000000" fill-rule="evenodd" fill-opacity="1" /><path clip-path="url(#clip560)" d="M 0 0 M1268.75 2534.35 L1287.84 2534.35 L1287.84 2468.44 L1267.07 2472.61 L1267.07 2461.96 L1287.73 2457.79 L1299.42 2457.79 L1299.42 2534.35 L1318.51 2534.35 L1318.51 2544.19 L1268.75 2544.19 L1268.75 2534.35 Z" fill="#000000" fill-rule="evenodd" fill-opacity="1" /><polyline clip-path="url(#clip560)" style="stroke:#000000; stroke-width:4; stroke-opacity:1; fill:none" points="
  158.992,2344.51 158.992,292.48 
  "/>
<polyline clip-path="url(#clip560)" style="stroke:#000000; stroke-width:4; stroke-opacity:1; fill:none" points="
  2211.02,2344.51 2211.02,292.48 
  "/>
<path clip-path="url(#clip560)" d="M 0 0 M866.173 13.7499 Q858.418 27.06 854.657 40.0808 Q850.895 53.1016 850.895 66.4696 Q850.895 79.8375 854.657 92.974 Q858.476 106.053 866.173 119.305 L856.914 119.305 Q848.233 105.705 843.893 92.5689 Q839.61 79.4324 839.61 66.4696 Q839.61 53.5645 843.893 40.4859 Q848.175 27.4073 856.914 13.7499 L866.173 13.7499 Z" fill="#000000" fill-rule="evenodd" fill-opacity="1" /><path clip-path="url(#clip560)" d="M 0 0 M877.342 38.8655 L887.99 38.8655 L887.99 103.68 L877.342 103.68 L877.342 38.8655 M877.342 13.6342 L887.99 13.6342 L887.99 27.1179 L877.342 27.1179 L877.342 13.6342 Z" fill="#000000" fill-rule="evenodd" fill-opacity="1" /><path clip-path="url(#clip560)" d="M 0 0 M897.48 13.7499 L906.74 13.7499 Q915.42 27.4073 919.703 40.4859 Q924.043 53.5645 924.043 66.4696 Q924.043 79.4324 919.703 92.5689 Q915.42 105.705 906.74 119.305 L897.48 119.305 Q905.177 106.053 908.939 92.974 Q912.758 79.8375 912.758 66.4696 Q912.758 53.1016 908.939 40.0808 Q905.177 27.06 897.48 13.7499 Z" fill="#000000" fill-rule="evenodd" fill-opacity="1" /><path clip-path="url(#clip560)" d="M 0 0 M973.348 17.28 L985.038 17.28 L985.038 103.68 L973.348 103.68 L973.348 17.28 Z" fill="#000000" fill-rule="evenodd" fill-opacity="1" /><path clip-path="url(#clip560)" d="M 0 0 M1050.08 64.5598 L1050.08 103.68 L1039.44 103.68 L1039.44 64.9071 Q1039.44 55.7057 1035.85 51.134 Q1032.26 46.5623 1025.08 46.5623 Q1016.46 46.5623 1011.48 52.0599 Q1006.51 57.5576 1006.51 67.0483 L1006.51 103.68 L995.802 103.68 L995.802 38.8655 L1006.51 38.8655 L1006.51 48.9349 Q1010.33 43.09 1015.48 40.1965 Q1020.69 37.303 1027.46 37.303 Q1038.63 37.303 1044.35 44.2474 Q1050.08 51.134 1050.08 64.5598 Z" fill="#000000" fill-rule="evenodd" fill-opacity="1" /><path clip-path="url(#clip560)" d="M 0 0 M1061.25 38.8655 L1071.9 38.8655 L1071.9 103.68 L1061.25 103.68 L1061.25 38.8655 M1061.25 13.6342 L1071.9 13.6342 L1071.9 27.1179 L1061.25 27.1179 L1061.25 13.6342 Z" fill="#000000" fill-rule="evenodd" fill-opacity="1" /><path clip-path="url(#clip560)" d="M 0 0 M1093.6 20.4629 L1093.6 38.8655 L1115.53 38.8655 L1115.53 47.141 L1093.6 47.141 L1093.6 82.3259 Q1093.6 90.2541 1095.74 92.5111 Q1097.94 94.768 1104.6 94.768 L1115.53 94.768 L1115.53 103.68 L1104.6 103.68 Q1092.27 103.68 1087.58 99.1083 Q1082.9 94.4787 1082.9 82.3259 L1082.9 47.141 L1075.08 47.141 L1075.08 38.8655 L1082.9 38.8655 L1082.9 20.4629 L1093.6 20.4629 Z" fill="#000000" fill-rule="evenodd" fill-opacity="1" /><path clip-path="url(#clip560)" d="M 0 0 M1126.7 38.8655 L1137.35 38.8655 L1137.35 103.68 L1126.7 103.68 L1126.7 38.8655 M1126.7 13.6342 L1137.35 13.6342 L1137.35 27.1179 L1126.7 27.1179 L1126.7 13.6342 Z" fill="#000000" fill-rule="evenodd" fill-opacity="1" /><path clip-path="url(#clip560)" d="M 0 0 M1177.98 71.0992 Q1165.07 71.0992 1160.09 74.0505 Q1155.12 77.0019 1155.12 84.1199 Q1155.12 89.7912 1158.82 93.1476 Q1162.58 96.4462 1169.01 96.4462 Q1177.86 96.4462 1183.18 90.1963 Q1188.57 83.8884 1188.57 73.4718 L1188.57 71.0992 L1177.98 71.0992 M1199.21 66.701 L1199.21 103.68 L1188.57 103.68 L1188.57 93.8421 Q1184.92 99.7448 1179.48 102.58 Q1174.04 105.358 1166.17 105.358 Q1156.22 105.358 1150.31 99.8027 Q1144.47 94.1893 1144.47 84.8144 Q1144.47 73.8769 1151.76 68.3214 Q1159.11 62.7659 1173.64 62.7659 L1188.57 62.7659 L1188.57 61.7242 Q1188.57 54.3747 1183.71 50.3817 Q1178.9 46.3308 1170.16 46.3308 Q1164.61 46.3308 1159.34 47.6618 Q1154.08 48.9928 1149.22 51.6548 L1149.22 41.8169 Q1155.06 39.56 1160.56 38.4604 Q1166.06 37.303 1171.26 37.303 Q1185.33 37.303 1192.27 44.5947 Q1199.21 51.8863 1199.21 66.701 Z" fill="#000000" fill-rule="evenodd" fill-opacity="1" /><path clip-path="url(#clip560)" d="M 0 0 M1210.38 13.6342 L1221.03 13.6342 L1221.03 103.68 L1210.38 103.68 L1210.38 13.6342 Z" fill="#000000" fill-rule="evenodd" fill-opacity="1" /><path clip-path="url(#clip560)" d="M 0 0 M1311.19 40.7752 L1311.19 50.8446 Q1306.68 48.5298 1301.82 47.3724 Q1296.96 46.215 1291.75 46.215 Q1283.82 46.215 1279.83 48.6456 Q1275.89 51.0761 1275.89 55.9372 Q1275.89 59.6409 1278.73 61.7821 Q1281.56 63.8654 1290.13 65.7751 L1293.77 66.5853 Q1305.12 69.0158 1309.86 73.4718 Q1314.67 77.87 1314.67 85.7982 Q1314.67 94.8259 1307.49 100.092 Q1300.37 105.358 1287.87 105.358 Q1282.66 105.358 1276.99 104.317 Q1271.38 103.333 1265.13 101.307 L1265.13 90.312 Q1271.03 93.3791 1276.76 94.9416 Q1282.49 96.4462 1288.1 96.4462 Q1295.63 96.4462 1299.68 93.9 Q1303.73 91.2958 1303.73 86.6083 Q1303.73 82.2681 1300.78 79.9533 Q1297.88 77.6385 1287.99 75.4973 L1284.28 74.6292 Q1274.39 72.5459 1269.99 68.2635 Q1265.59 63.9233 1265.59 56.4002 Q1265.59 47.2567 1272.07 42.2799 Q1278.55 37.303 1290.48 37.303 Q1296.38 37.303 1301.59 38.1711 Q1306.8 39.0391 1311.19 40.7752 Z" fill="#000000" fill-rule="evenodd" fill-opacity="1" /><path clip-path="url(#clip560)" d="M 0 0 M1336.37 20.4629 L1336.37 38.8655 L1358.3 38.8655 L1358.3 47.141 L1336.37 47.141 L1336.37 82.3259 Q1336.37 90.2541 1338.51 92.5111 Q1340.71 94.768 1347.36 94.768 L1358.3 94.768 L1358.3 103.68 L1347.36 103.68 Q1335.04 103.68 1330.35 99.1083 Q1325.66 94.4787 1325.66 82.3259 L1325.66 47.141 L1317.85 47.141 L1317.85 38.8655 L1325.66 38.8655 L1325.66 20.4629 L1336.37 20.4629 Z" fill="#000000" fill-rule="evenodd" fill-opacity="1" /><path clip-path="url(#clip560)" d="M 0 0 M1398.92 71.0992 Q1386.02 71.0992 1381.04 74.0505 Q1376.07 77.0019 1376.07 84.1199 Q1376.07 89.7912 1379.77 93.1476 Q1383.53 96.4462 1389.95 96.4462 Q1398.81 96.4462 1404.13 90.1963 Q1409.51 83.8884 1409.51 73.4718 L1409.51 71.0992 L1398.92 71.0992 M1420.16 66.701 L1420.16 103.68 L1409.51 103.68 L1409.51 93.8421 Q1405.87 99.7448 1400.43 102.58 Q1394.99 105.358 1387.12 105.358 Q1377.17 105.358 1371.26 99.8027 Q1365.42 94.1893 1365.42 84.8144 Q1365.42 73.8769 1372.71 68.3214 Q1380.06 62.7659 1394.58 62.7659 L1409.51 62.7659 L1409.51 61.7242 Q1409.51 54.3747 1404.65 50.3817 Q1399.85 46.3308 1391.11 46.3308 Q1385.56 46.3308 1380.29 47.6618 Q1375.02 48.9928 1370.16 51.6548 L1370.16 41.8169 Q1376.01 39.56 1381.51 38.4604 Q1387 37.303 1392.21 37.303 Q1406.27 37.303 1413.22 44.5947 Q1420.16 51.8863 1420.16 66.701 Z" fill="#000000" fill-rule="evenodd" fill-opacity="1" /><path clip-path="url(#clip560)" d="M 0 0 M1441.86 20.4629 L1441.86 38.8655 L1463.8 38.8655 L1463.8 47.141 L1441.86 47.141 L1441.86 82.3259 Q1441.86 90.2541 1444.01 92.5111 Q1446.2 94.768 1452.86 94.768 L1463.8 94.768 L1463.8 103.68 L1452.86 103.68 Q1440.53 103.68 1435.85 99.1083 Q1431.16 94.4787 1431.16 82.3259 L1431.16 47.141 L1423.35 47.141 L1423.35 38.8655 L1431.16 38.8655 L1431.16 20.4629 L1441.86 20.4629 Z" fill="#000000" fill-rule="evenodd" fill-opacity="1" /><path clip-path="url(#clip560)" d="M 0 0 M1530.41 68.6107 L1530.41 73.819 L1481.45 73.819 Q1482.14 84.8144 1488.04 90.6014 Q1494.01 96.3305 1504.6 96.3305 Q1510.73 96.3305 1516.46 94.8259 Q1522.25 93.3213 1527.92 90.312 L1527.92 100.381 Q1522.19 102.812 1516.17 104.085 Q1510.15 105.358 1503.96 105.358 Q1488.45 105.358 1479.36 96.3305 Q1470.34 87.3028 1470.34 71.9093 Q1470.34 55.9951 1478.9 46.678 Q1487.52 37.303 1502.11 37.303 Q1515.19 37.303 1522.77 45.7521 Q1530.41 54.1432 1530.41 68.6107 M1519.76 65.4858 Q1519.64 56.7474 1514.84 51.5391 Q1510.09 46.3308 1502.22 46.3308 Q1493.31 46.3308 1487.93 51.3655 Q1482.6 56.4002 1481.79 65.5436 L1519.76 65.4858 Z" fill="#000000" fill-rule="evenodd" fill-opacity="1" /><path clip-path="url(#clip562)" d="
M158.992 2344.51 L2211.02 2344.51 L2211.02 2116.51 L158.992 2116.51 L158.992 2344.51 L158.992 2344.51  Z
  " fill="#b3b3b3" fill-rule="evenodd" fill-opacity="1"/>
<polyline clip-path="url(#clip562)" style="stroke:#000000; stroke-width:4; stroke-opacity:0; fill:none" points="
  158.992,2344.51 2211.02,2344.51 2211.02,2116.51 158.992,2116.51 158.992,2344.51 
  "/>
<path clip-path="url(#clip562)" d="
M215.993 2116.51 L443.997 2116.51 L443.997 1888.5 L215.993 1888.5 L215.993 2116.51 L215.993 2116.51  Z
  " fill="#0c0786" fill-rule="evenodd" fill-opacity="1"/>
<polyline clip-path="url(#clip562)" style="stroke:#000000; stroke-width:4; stroke-opacity:0; fill:none" points="
  215.993,2116.51 443.997,2116.51 443.997,1888.5 215.993,1888.5 215.993,2116.51 
  "/>
<path clip-path="url(#clip562)" d="
M215.993 1888.5 L443.997 1888.5 L443.997 1660.5 L215.993 1660.5 L215.993 1888.5 L215.993 1888.5  Z
  " fill="#3f039c" fill-rule="evenodd" fill-opacity="1"/>
<polyline clip-path="url(#clip562)" style="stroke:#000000; stroke-width:4; stroke-opacity:0; fill:none" points="
  215.993,1888.5 443.997,1888.5 443.997,1660.5 215.993,1660.5 215.993,1888.5 
  "/>
<path clip-path="url(#clip562)" d="
M1242.01 1888.5 L1470.01 1888.5 L1470.01 1660.5 L1242.01 1660.5 L1242.01 1888.5 L1242.01 1888.5  Z
  " fill="#6500a7" fill-rule="evenodd" fill-opacity="1"/>
<polyline clip-path="url(#clip562)" style="stroke:#000000; stroke-width:4; stroke-opacity:0; fill:none" points="
  1242.01,1888.5 1470.01,1888.5 1470.01,1660.5 1242.01,1660.5 1242.01,1888.5 
  "/>
<path clip-path="url(#clip562)" d="
M1242.01 2116.51 L1470.01 2116.51 L1470.01 1888.5 L1242.01 1888.5 L1242.01 2116.51 L1242.01 2116.51  Z
  " fill="#8908a5" fill-rule="evenodd" fill-opacity="1"/>
<polyline clip-path="url(#clip562)" style="stroke:#000000; stroke-width:4; stroke-opacity:0; fill:none" points="
  1242.01,2116.51 1470.01,2116.51 1470.01,1888.5 1242.01,1888.5 1242.01,2116.51 
  "/>
<path clip-path="url(#clip562)" d="
M1584.01 2116.51 L1812.02 2116.51 L1812.02 1888.5 L1584.01 1888.5 L1584.01 2116.51 L1584.01 2116.51  Z
  " fill="#a92395" fill-rule="evenodd" fill-opacity="1"/>
<polyline clip-path="url(#clip562)" style="stroke:#000000; stroke-width:4; stroke-opacity:0; fill:none" points="
  1584.01,2116.51 1812.02,2116.51 1812.02,1888.5 1584.01,1888.5 1584.01,2116.51 
  "/>
<path clip-path="url(#clip562)" d="
M1926.02 2116.51 L2154.02 2116.51 L2154.02 1888.5 L1926.02 1888.5 L1926.02 2116.51 L1926.02 2116.51  Z
  " fill="#c33e7f" fill-rule="evenodd" fill-opacity="1"/>
<polyline clip-path="url(#clip562)" style="stroke:#000000; stroke-width:4; stroke-opacity:0; fill:none" points="
  1926.02,2116.51 2154.02,2116.51 2154.02,1888.5 1926.02,1888.5 1926.02,2116.51 
  "/>
<path clip-path="url(#clip560)" d="M 0 0 M350.504 1987.21 L350.504 1995.17 Q346.893 1993.18 343.235 1992.21 Q339.624 1991.19 335.921 1991.19 Q327.634 1991.19 323.05 1996.46 Q318.467 2001.7 318.467 2011.19 Q318.467 2020.68 323.05 2025.96 Q327.634 2031.19 335.921 2031.19 Q339.624 2031.19 343.235 2030.21 Q346.893 2029.2 350.504 2027.21 L350.504 2035.08 Q346.939 2036.74 343.097 2037.58 Q339.3 2038.41 334.995 2038.41 Q323.282 2038.41 316.384 2031.05 Q309.486 2023.69 309.486 2011.19 Q309.486 1998.5 316.43 1991.23 Q323.421 1983.96 335.55 1983.96 Q339.485 1983.96 343.235 1984.8 Q346.985 1985.59 350.504 1987.21 Z" fill="#ffffff" fill-rule="evenodd" fill-opacity="1" /><path clip-path="url(#clip560)" d="M 0 0 M354.022 1781.01 L354.022 1785.17 L314.856 1785.17 Q315.411 1793.97 320.134 1798.6 Q324.902 1803.18 333.374 1803.18 Q338.282 1803.18 342.865 1801.98 Q347.495 1800.78 352.032 1798.37 L352.032 1806.42 Q347.448 1808.37 342.634 1809.39 Q337.819 1810.41 332.865 1810.41 Q320.458 1810.41 313.189 1803.18 Q305.967 1795.96 305.967 1783.65 Q305.967 1770.92 312.819 1763.46 Q319.717 1755.96 331.384 1755.96 Q341.847 1755.96 347.911 1762.72 Q354.022 1769.43 354.022 1781.01 M345.504 1778.51 Q345.411 1771.52 341.569 1767.35 Q337.772 1763.18 331.476 1763.18 Q324.347 1763.18 320.041 1767.21 Q315.782 1771.24 315.134 1778.55 L345.504 1778.51 Z" fill="#ffffff" fill-rule="evenodd" fill-opacity="1" /><path clip-path="url(#clip560)" d="M 0 0 M1356.01 1763.18 Q1349.16 1763.18 1345.18 1768.55 Q1341.2 1773.88 1341.2 1783.18 Q1341.2 1792.49 1345.13 1797.86 Q1349.11 1803.18 1356.01 1803.18 Q1362.82 1803.18 1366.8 1797.81 Q1370.78 1792.44 1370.78 1783.18 Q1370.78 1773.97 1366.8 1768.6 Q1362.82 1763.18 1356.01 1763.18 M1356.01 1755.96 Q1367.12 1755.96 1373.46 1763.18 Q1379.81 1770.41 1379.81 1783.18 Q1379.81 1795.91 1373.46 1803.18 Q1367.12 1810.41 1356.01 1810.41 Q1344.85 1810.41 1338.51 1803.18 Q1332.21 1795.91 1332.21 1783.18 Q1332.21 1770.41 1338.51 1763.18 Q1344.85 1755.96 1356.01 1755.96 Z" fill="#ffffff" fill-rule="evenodd" fill-opacity="1" /><path clip-path="url(#clip560)" d="M 0 0 M1341.38 2029.29 L1341.38 2056.79 L1332.82 2056.79 L1332.82 1985.21 L1341.38 1985.21 L1341.38 1993.09 Q1344.07 1988.46 1348.14 1986.23 Q1352.26 1983.96 1357.95 1983.96 Q1367.4 1983.96 1373.28 1991.46 Q1379.2 1998.96 1379.2 2011.19 Q1379.2 2023.41 1373.28 2030.91 Q1367.4 2038.41 1357.95 2038.41 Q1352.26 2038.41 1348.14 2036.19 Q1344.07 2033.92 1341.38 2029.29 M1370.36 2011.19 Q1370.36 2001.79 1366.47 1996.46 Q1362.63 1991.09 1355.87 1991.09 Q1349.11 1991.09 1345.22 1996.46 Q1341.38 2001.79 1341.38 2011.19 Q1341.38 2020.59 1345.22 2025.96 Q1349.11 2031.28 1355.87 2031.28 Q1362.63 2031.28 1366.47 2025.96 Q1370.36 2020.59 1370.36 2011.19 Z" fill="#ffffff" fill-rule="evenodd" fill-opacity="1" /><path clip-path="url(#clip560)" d="M 0 0 M1713.2 1993.18 Q1711.77 1992.34 1710.05 1991.97 Q1708.39 1991.56 1706.35 1991.56 Q1699.13 1991.56 1695.24 1996.28 Q1691.4 2000.96 1691.4 2009.75 L1691.4 2037.07 L1682.83 2037.07 L1682.83 1985.21 L1691.4 1985.21 L1691.4 1993.27 Q1694.08 1988.55 1698.39 1986.28 Q1702.69 1983.96 1708.85 1983.96 Q1709.73 1983.96 1710.79 1984.1 Q1711.86 1984.2 1713.15 1984.43 L1713.2 1993.18 Z" fill="#ffffff" fill-rule="evenodd" fill-opacity="1" /><path clip-path="url(#clip560)" d="M 0 0 M2005.23 1985.21 L2013.75 1985.21 L2024.4 2025.68 L2035 1985.21 L2045.04 1985.21 L2055.69 2025.68 L2066.29 1985.21 L2074.81 1985.21 L2061.25 2037.07 L2051.2 2037.07 L2040.04 1994.57 L2028.84 2037.07 L2018.79 2037.07 L2005.23 1985.21 Z" fill="#ffffff" fill-rule="evenodd" fill-opacity="1" /><path clip-path="url(#clip560)" d="
M2558.99 2344.51 L4611.02 2344.51 L4611.02 292.48 L2558.99 292.48  Z
  " fill="#ffffff" fill-rule="evenodd" fill-opacity="1"/>
<defs>
  <clipPath id="clip563">
    <rect x="2558" y="292" width="2053" height="2053"/>
  </clipPath>
</defs>
<polyline clip-path="url(#clip560)" style="stroke:#000000; stroke-width:4; stroke-opacity:1; fill:none" points="
  2558.99,2344.51 4611.02,2344.51 
  "/>
<polyline clip-path="url(#clip560)" style="stroke:#000000; stroke-width:4; stroke-opacity:1; fill:none" points="
  2558.99,292.48 4611.02,292.48 
  "/>
<path clip-path="url(#clip560)" d="M 0 0 M3469.73 2460.97 L3469.73 2479.38 L3491.66 2479.38 L3491.66 2487.65 L3469.73 2487.65 L3469.73 2522.84 Q3469.73 2530.77 3471.87 2533.02 Q3474.07 2535.28 3480.73 2535.28 L3491.66 2535.28 L3491.66 2544.19 L3480.73 2544.19 Q3468.4 2544.19 3463.71 2539.62 Q3459.02 2534.99 3459.02 2522.84 L3459.02 2487.65 L3451.21 2487.65 L3451.21 2479.38 L3459.02 2479.38 L3459.02 2460.97 L3469.73 2460.97 Z" fill="#000000" fill-rule="evenodd" fill-opacity="1" /><path clip-path="url(#clip560)" d="M 0 0 M3541.89 2490.37 L3616.08 2490.37 L3616.08 2500.09 L3541.89 2500.09 L3541.89 2490.37 M3541.89 2513.98 L3616.08 2513.98 L3616.08 2523.82 L3541.89 2523.82 L3541.89 2513.98 Z" fill="#000000" fill-rule="evenodd" fill-opacity="1" /><path clip-path="url(#clip560)" d="M 0 0 M3666.55 2457.79 L3712.44 2457.79 L3712.44 2467.63 L3677.25 2467.63 L3677.25 2488.81 Q3679.8 2487.94 3682.35 2487.54 Q3684.89 2487.07 3687.44 2487.07 Q3701.91 2487.07 3710.35 2495 Q3718.8 2502.93 3718.8 2516.47 Q3718.8 2530.42 3710.12 2538.17 Q3701.44 2545.87 3685.64 2545.87 Q3680.2 2545.87 3674.53 2544.94 Q3668.92 2544.02 3662.9 2542.17 L3662.9 2530.42 Q3668.11 2533.25 3673.66 2534.64 Q3679.22 2536.03 3685.41 2536.03 Q3695.42 2536.03 3701.27 2530.77 Q3707.11 2525.5 3707.11 2516.47 Q3707.11 2507.44 3701.27 2502.18 Q3695.42 2496.91 3685.41 2496.91 Q3680.72 2496.91 3676.04 2497.95 Q3671.41 2499 3666.55 2501.19 L3666.55 2457.79 Z" fill="#000000" fill-rule="evenodd" fill-opacity="1" /><polyline clip-path="url(#clip560)" style="stroke:#000000; stroke-width:4; stroke-opacity:1; fill:none" points="
  2558.99,2344.51 2558.99,292.48 
  "/>
<polyline clip-path="url(#clip560)" style="stroke:#000000; stroke-width:4; stroke-opacity:1; fill:none" points="
  4611.02,2344.51 4611.02,292.48 
  "/>
<path clip-path="url(#clip560)" d="M 0 0 M2653.01 13.7499 Q2645.26 27.06 2641.49 40.0808 Q2637.73 53.1016 2637.73 66.4696 Q2637.73 79.8375 2641.49 92.974 Q2645.31 106.053 2653.01 119.305 L2643.75 119.305 Q2635.07 105.705 2630.73 92.5689 Q2626.45 79.4324 2626.45 66.4696 Q2626.45 53.5645 2630.73 40.4859 Q2635.01 27.4073 2643.75 13.7499 L2653.01 13.7499 Z" fill="#000000" fill-rule="evenodd" fill-opacity="1" /><path clip-path="url(#clip560)" d="M 0 0 M2664.18 38.8655 L2674.83 38.8655 L2674.83 103.68 L2664.18 103.68 L2664.18 38.8655 M2664.18 13.6342 L2674.83 13.6342 L2674.83 27.1179 L2664.18 27.1179 L2664.18 13.6342 Z" fill="#000000" fill-rule="evenodd" fill-opacity="1" /><path clip-path="url(#clip560)" d="M 0 0 M2686 38.8655 L2696.64 38.8655 L2696.64 103.68 L2686 103.68 L2686 38.8655 M2686 13.6342 L2696.64 13.6342 L2696.64 27.1179 L2686 27.1179 L2686 13.6342 Z" fill="#000000" fill-rule="evenodd" fill-opacity="1" /><path clip-path="url(#clip560)" d="M 0 0 M2706.14 13.7499 L2715.39 13.7499 Q2724.07 27.4073 2728.36 40.4859 Q2732.7 53.5645 2732.7 66.4696 Q2732.7 79.4324 2728.36 92.5689 Q2724.07 105.705 2715.39 119.305 L2706.14 119.305 Q2713.83 106.053 2717.59 92.974 Q2721.41 79.8375 2721.41 66.4696 Q2721.41 53.1016 2717.59 40.0808 Q2713.83 27.06 2706.14 13.7499 Z" fill="#000000" fill-rule="evenodd" fill-opacity="1" /><path clip-path="url(#clip560)" d="M 0 0 M2810.88 28.7961 L2795.02 71.7936 L2826.79 71.7936 L2810.88 28.7961 M2804.28 17.28 L2817.54 17.28 L2850.46 103.68 L2838.31 103.68 L2830.44 81.5158 L2791.49 81.5158 L2783.62 103.68 L2771.3 103.68 L2804.28 17.28 Z" fill="#000000" fill-rule="evenodd" fill-opacity="1" /><path clip-path="url(#clip560)" d="M 0 0 M2904.28 70.5205 Q2904.28 58.9464 2899.48 52.5807 Q2894.73 46.215 2886.11 46.215 Q2877.55 46.215 2872.74 52.5807 Q2868 58.9464 2868 70.5205 Q2868 82.0366 2872.74 88.4023 Q2877.55 94.768 2886.11 94.768 Q2894.73 94.768 2899.48 88.4023 Q2904.28 82.0366 2904.28 70.5205 M2914.93 95.6361 Q2914.93 112.187 2907.58 120.231 Q2900.23 128.333 2885.07 128.333 Q2879.46 128.333 2874.48 127.465 Q2869.5 126.654 2864.81 124.918 L2864.81 114.56 Q2869.5 117.106 2874.07 118.321 Q2878.65 119.536 2883.39 119.536 Q2893.87 119.536 2899.07 114.039 Q2904.28 108.599 2904.28 97.5458 L2904.28 92.2796 Q2900.98 98.0087 2895.83 100.844 Q2890.68 103.68 2883.51 103.68 Q2871.59 103.68 2864.29 94.5944 Q2857 85.5088 2857 70.5205 Q2857 55.4742 2864.29 46.3886 Q2871.59 37.303 2883.51 37.303 Q2890.68 37.303 2895.83 40.1387 Q2900.98 42.9743 2904.28 48.7034 L2904.28 38.8655 L2914.93 38.8655 L2914.93 95.6361 Z" fill="#000000" fill-rule="evenodd" fill-opacity="1" /><path clip-path="url(#clip560)" d="M 0 0 M2981.54 68.6107 L2981.54 73.819 L2932.58 73.819 Q2933.28 84.8144 2939.18 90.6014 Q2945.14 96.3305 2955.73 96.3305 Q2961.86 96.3305 2967.59 94.8259 Q2973.38 93.3213 2979.05 90.312 L2979.05 100.381 Q2973.32 102.812 2967.3 104.085 Q2961.28 105.358 2955.09 105.358 Q2939.58 105.358 2930.5 96.3305 Q2921.47 87.3028 2921.47 71.9093 Q2921.47 55.9951 2930.03 46.678 Q2938.66 37.303 2953.24 37.303 Q2966.32 37.303 2973.9 45.7521 Q2981.54 54.1432 2981.54 68.6107 M2970.89 65.4858 Q2970.78 56.7474 2965.97 51.5391 Q2961.23 46.3308 2953.36 46.3308 Q2944.44 46.3308 2939.06 51.3655 Q2933.74 56.4002 2932.93 65.5436 L2970.89 65.4858 Z" fill="#000000" fill-rule="evenodd" fill-opacity="1" /><path clip-path="url(#clip560)" d="M 0 0 M3046.58 64.5598 L3046.58 103.68 L3035.94 103.68 L3035.94 64.9071 Q3035.94 55.7057 3032.35 51.134 Q3028.76 46.5623 3021.58 46.5623 Q3012.96 46.5623 3007.99 52.0599 Q3003.01 57.5576 3003.01 67.0483 L3003.01 103.68 L2992.3 103.68 L2992.3 38.8655 L3003.01 38.8655 L3003.01 48.9349 Q3006.83 43.09 3011.98 40.1965 Q3017.19 37.303 3023.96 37.303 Q3035.13 37.303 3040.86 44.2474 Q3046.58 51.134 3046.58 64.5598 Z" fill="#000000" fill-rule="evenodd" fill-opacity="1" /><path clip-path="url(#clip560)" d="M 0 0 M3068.29 20.4629 L3068.29 38.8655 L3090.22 38.8655 L3090.22 47.141 L3068.29 47.141 L3068.29 82.3259 Q3068.29 90.2541 3070.43 92.5111 Q3072.63 94.768 3079.28 94.768 L3090.22 94.768 L3090.22 103.68 L3079.28 103.68 Q3066.96 103.68 3062.27 99.1083 Q3057.58 94.4787 3057.58 82.3259 L3057.58 47.141 L3049.77 47.141 L3049.77 38.8655 L3057.58 38.8655 L3057.58 20.4629 L3068.29 20.4629 Z" fill="#000000" fill-rule="evenodd" fill-opacity="1" /><path clip-path="url(#clip560)" d="M 0 0 M3189.52 51.3076 Q3193.52 44.1317 3199.07 40.7174 Q3204.63 37.303 3212.15 37.303 Q3222.28 37.303 3227.78 44.4211 Q3233.27 51.4812 3233.27 64.5598 L3233.27 103.68 L3222.57 103.68 L3222.57 64.9071 Q3222.57 55.59 3219.27 51.0761 Q3215.97 46.5623 3209.2 46.5623 Q3200.92 46.5623 3196.12 52.0599 Q3191.32 57.5576 3191.32 67.0483 L3191.32 103.68 L3180.61 103.68 L3180.61 64.9071 Q3180.61 55.5321 3177.31 51.0761 Q3174.01 46.5623 3167.13 46.5623 Q3158.97 46.5623 3154.17 52.1178 Q3149.36 57.6154 3149.36 67.0483 L3149.36 103.68 L3138.66 103.68 L3138.66 38.8655 L3149.36 38.8655 L3149.36 48.9349 Q3153.01 42.9743 3158.1 40.1387 Q3163.19 37.303 3170.2 37.303 Q3177.26 37.303 3182.17 40.891 Q3187.15 44.4789 3189.52 51.3076 Z" fill="#000000" fill-rule="evenodd" fill-opacity="1" /><path clip-path="url(#clip560)" d="M 0 0 M3244.44 38.8655 L3255.09 38.8655 L3255.09 103.68 L3244.44 103.68 L3244.44 38.8655 M3244.44 13.6342 L3255.09 13.6342 L3255.09 27.1179 L3244.44 27.1179 L3244.44 13.6342 Z" fill="#000000" fill-rule="evenodd" fill-opacity="1" /><path clip-path="url(#clip560)" d="M 0 0 M3307.58 40.7752 L3307.58 50.8446 Q3303.06 48.5298 3298.2 47.3724 Q3293.34 46.215 3288.13 46.215 Q3280.21 46.215 3276.21 48.6456 Q3272.28 51.0761 3272.28 55.9372 Q3272.28 59.6409 3275.11 61.7821 Q3277.95 63.8654 3286.51 65.7751 L3290.16 66.5853 Q3301.5 69.0158 3306.25 73.4718 Q3311.05 77.87 3311.05 85.7982 Q3311.05 94.8259 3303.88 100.092 Q3296.76 105.358 3284.26 105.358 Q3279.05 105.358 3273.38 104.317 Q3267.76 103.333 3261.51 101.307 L3261.51 90.312 Q3267.42 93.3791 3273.15 94.9416 Q3278.88 96.4462 3284.49 96.4462 Q3292.01 96.4462 3296.06 93.9 Q3300.11 91.2958 3300.11 86.6083 Q3300.11 82.2681 3297.16 79.9533 Q3294.27 77.6385 3284.37 75.4973 L3280.67 74.6292 Q3270.77 72.5459 3266.38 68.2635 Q3261.98 63.9233 3261.98 56.4002 Q3261.98 47.2567 3268.46 42.2799 Q3274.94 37.303 3286.86 37.303 Q3292.76 37.303 3297.97 38.1711 Q3303.18 39.0391 3307.58 40.7752 Z" fill="#000000" fill-rule="evenodd" fill-opacity="1" /><path clip-path="url(#clip560)" d="M 0 0 M3332.75 20.4629 L3332.75 38.8655 L3354.69 38.8655 L3354.69 47.141 L3332.75 47.141 L3332.75 82.3259 Q3332.75 90.2541 3334.89 92.5111 Q3337.09 94.768 3343.75 94.768 L3354.69 94.768 L3354.69 103.68 L3343.75 103.68 Q3331.42 103.68 3326.73 99.1083 Q3322.05 94.4787 3322.05 82.3259 L3322.05 47.141 L3314.23 47.141 L3314.23 38.8655 L3322.05 38.8655 L3322.05 20.4629 L3332.75 20.4629 Z" fill="#000000" fill-rule="evenodd" fill-opacity="1" /><path clip-path="url(#clip560)" d="M 0 0 M3395.31 71.0992 Q3382.4 71.0992 3377.43 74.0505 Q3372.45 77.0019 3372.45 84.1199 Q3372.45 89.7912 3376.15 93.1476 Q3379.92 96.4462 3386.34 96.4462 Q3395.19 96.4462 3400.52 90.1963 Q3405.9 83.8884 3405.9 73.4718 L3405.9 71.0992 L3395.31 71.0992 M3416.55 66.701 L3416.55 103.68 L3405.9 103.68 L3405.9 93.8421 Q3402.25 99.7448 3396.81 102.58 Q3391.37 105.358 3383.5 105.358 Q3373.55 105.358 3367.65 99.8027 Q3361.8 94.1893 3361.8 84.8144 Q3361.8 73.8769 3369.09 68.3214 Q3376.44 62.7659 3390.97 62.7659 L3405.9 62.7659 L3405.9 61.7242 Q3405.9 54.3747 3401.04 50.3817 Q3396.24 46.3308 3387.5 46.3308 Q3381.94 46.3308 3376.68 47.6618 Q3371.41 48.9928 3366.55 51.6548 L3366.55 41.8169 Q3372.39 39.56 3377.89 38.4604 Q3383.39 37.303 3388.6 37.303 Q3402.66 37.303 3409.6 44.5947 Q3416.55 51.8863 3416.55 66.701 Z" fill="#000000" fill-rule="evenodd" fill-opacity="1" /><path clip-path="url(#clip560)" d="M 0 0 M3427.31 13.6342 L3438.02 13.6342 L3438.02 66.8168 L3469.79 38.8655 L3483.39 38.8655 L3449.01 69.1894 L3484.83 103.68 L3470.95 103.68 L3438.02 72.0251 L3438.02 103.68 L3427.31 103.68 L3427.31 13.6342 Z" fill="#000000" fill-rule="evenodd" fill-opacity="1" /><path clip-path="url(#clip560)" d="M 0 0 M3547.22 68.6107 L3547.22 73.819 L3498.26 73.819 Q3498.96 84.8144 3504.86 90.6014 Q3510.82 96.3305 3521.41 96.3305 Q3527.54 96.3305 3533.27 94.8259 Q3539.06 93.3213 3544.73 90.312 L3544.73 100.381 Q3539 102.812 3532.98 104.085 Q3526.96 105.358 3520.77 105.358 Q3505.26 105.358 3496.18 96.3305 Q3487.15 87.3028 3487.15 71.9093 Q3487.15 55.9951 3495.71 46.678 Q3504.34 37.303 3518.92 37.303 Q3532 37.303 3539.58 45.7521 Q3547.22 54.1432 3547.22 68.6107 M3536.57 65.4858 Q3536.45 56.7474 3531.65 51.5391 Q3526.91 46.3308 3519.04 46.3308 Q3510.12 46.3308 3504.74 51.3655 Q3499.42 56.4002 3498.61 65.5436 L3536.57 65.4858 Z" fill="#000000" fill-rule="evenodd" fill-opacity="1" /><path clip-path="url(#clip560)" d="M 0 0 M3612.26 64.5598 L3612.26 103.68 L3601.62 103.68 L3601.62 64.9071 Q3601.62 55.7057 3598.03 51.134 Q3594.44 46.5623 3587.26 46.5623 Q3578.64 46.5623 3573.67 52.0599 Q3568.69 57.5576 3568.69 67.0483 L3568.69 103.68 L3557.98 103.68 L3557.98 38.8655 L3568.69 38.8655 L3568.69 48.9349 Q3572.51 43.09 3577.66 40.1965 Q3582.87 37.303 3589.64 37.303 Q3600.81 37.303 3606.54 44.2474 Q3612.26 51.134 3612.26 64.5598 Z" fill="#000000" fill-rule="evenodd" fill-opacity="1" /><path clip-path="url(#clip560)" d="M 0 0 M3623.43 13.6342 L3634.08 13.6342 L3634.08 103.68 L3623.43 103.68 L3623.43 13.6342 Z" fill="#000000" fill-rule="evenodd" fill-opacity="1" /><path clip-path="url(#clip560)" d="M 0 0 M3672.22 109.698 Q3667.7 121.272 3663.42 124.803 Q3659.14 128.333 3651.96 128.333 L3643.46 128.333 L3643.46 119.421 L3649.71 119.421 Q3654.1 119.421 3656.54 117.337 Q3658.97 115.254 3661.92 107.499 L3663.83 102.638 L3637.61 38.8655 L3648.9 38.8655 L3669.15 89.5597 L3689.41 38.8655 L3700.69 38.8655 L3672.22 109.698 Z" fill="#000000" fill-rule="evenodd" fill-opacity="1" /><path clip-path="url(#clip560)" d="M 0 0 M3790.85 40.7752 L3790.85 50.8446 Q3786.34 48.5298 3781.48 47.3724 Q3776.62 46.215 3771.41 46.215 Q3763.48 46.215 3759.49 48.6456 Q3755.55 51.0761 3755.55 55.9372 Q3755.55 59.6409 3758.39 61.7821 Q3761.22 63.8654 3769.79 65.7751 L3773.43 66.5853 Q3784.78 69.0158 3789.52 73.4718 Q3794.32 77.87 3794.32 85.7982 Q3794.32 94.8259 3787.15 100.092 Q3780.03 105.358 3767.53 105.358 Q3762.32 105.358 3756.65 104.317 Q3751.04 103.333 3744.79 101.307 L3744.79 90.312 Q3750.69 93.3791 3756.42 94.9416 Q3762.15 96.4462 3767.76 96.4462 Q3775.28 96.4462 3779.34 93.9 Q3783.39 91.2958 3783.39 86.6083 Q3783.39 82.2681 3780.44 79.9533 Q3777.54 77.6385 3767.65 75.4973 L3763.94 74.6292 Q3754.05 72.5459 3749.65 68.2635 Q3745.25 63.9233 3745.25 56.4002 Q3745.25 47.2567 3751.73 42.2799 Q3758.21 37.303 3770.13 37.303 Q3776.04 37.303 3781.25 38.1711 Q3786.45 39.0391 3790.85 40.7752 Z" fill="#000000" fill-rule="evenodd" fill-opacity="1" /><path clip-path="url(#clip560)" d="M 0 0 M3816.03 20.4629 L3816.03 38.8655 L3837.96 38.8655 L3837.96 47.141 L3816.03 47.141 L3816.03 82.3259 Q3816.03 90.2541 3818.17 92.5111 Q3820.37 94.768 3827.02 94.768 L3837.96 94.768 L3837.96 103.68 L3827.02 103.68 Q3814.69 103.68 3810.01 99.1083 Q3805.32 94.4787 3805.32 82.3259 L3805.32 47.141 L3797.51 47.141 L3797.51 38.8655 L3805.32 38.8655 L3805.32 20.4629 L3816.03 20.4629 Z" fill="#000000" fill-rule="evenodd" fill-opacity="1" /><path clip-path="url(#clip560)" d="M 0 0 M3878.58 71.0992 Q3865.68 71.0992 3860.7 74.0505 Q3855.72 77.0019 3855.72 84.1199 Q3855.72 89.7912 3859.43 93.1476 Q3863.19 96.4462 3869.61 96.4462 Q3878.47 96.4462 3883.79 90.1963 Q3889.17 83.8884 3889.17 73.4718 L3889.17 71.0992 L3878.58 71.0992 M3899.82 66.701 L3899.82 103.68 L3889.17 103.68 L3889.17 93.8421 Q3885.53 99.7448 3880.09 102.58 Q3874.65 105.358 3866.78 105.358 Q3856.82 105.358 3850.92 99.8027 Q3845.08 94.1893 3845.08 84.8144 Q3845.08 73.8769 3852.37 68.3214 Q3859.72 62.7659 3874.24 62.7659 L3889.17 62.7659 L3889.17 61.7242 Q3889.17 54.3747 3884.31 50.3817 Q3879.51 46.3308 3870.77 46.3308 Q3865.21 46.3308 3859.95 47.6618 Q3854.68 48.9928 3849.82 51.6548 L3849.82 41.8169 Q3855.67 39.56 3861.16 38.4604 Q3866.66 37.303 3871.87 37.303 Q3885.93 37.303 3892.88 44.5947 Q3899.82 51.8863 3899.82 66.701 Z" fill="#000000" fill-rule="evenodd" fill-opacity="1" /><path clip-path="url(#clip560)" d="M 0 0 M3957.63 41.3539 L3957.63 51.3076 Q3953.12 48.8192 3948.55 47.6039 Q3944.03 46.3308 3939.4 46.3308 Q3929.05 46.3308 3923.32 52.928 Q3917.59 59.4673 3917.59 71.3306 Q3917.59 83.194 3923.32 89.7912 Q3929.05 96.3305 3939.4 96.3305 Q3944.03 96.3305 3948.55 95.1152 Q3953.12 93.8421 3957.63 91.3537 L3957.63 101.192 Q3953.18 103.275 3948.37 104.317 Q3943.63 105.358 3938.25 105.358 Q3923.61 105.358 3914.98 96.1569 Q3906.36 86.9556 3906.36 71.3306 Q3906.36 55.4742 3915.04 46.3886 Q3923.78 37.303 3938.94 37.303 Q3943.86 37.303 3948.55 38.3447 Q3953.24 39.3285 3957.63 41.3539 Z" fill="#000000" fill-rule="evenodd" fill-opacity="1" /><path clip-path="url(#clip560)" d="M 0 0 M3968.4 13.6342 L3979.1 13.6342 L3979.1 66.8168 L4010.87 38.8655 L4024.47 38.8655 L3990.1 69.1894 L4025.92 103.68 L4012.03 103.68 L3979.1 72.0251 L3979.1 103.68 L3968.4 103.68 L3968.4 13.6342 Z" fill="#000000" fill-rule="evenodd" fill-opacity="1" /><path clip-path="url(#clip560)" d="M 0 0 M4078.41 40.7752 L4078.41 50.8446 Q4073.89 48.5298 4069.03 47.3724 Q4064.17 46.215 4058.96 46.215 Q4051.04 46.215 4047.04 48.6456 Q4043.11 51.0761 4043.11 55.9372 Q4043.11 59.6409 4045.94 61.7821 Q4048.78 63.8654 4057.34 65.7751 L4060.99 66.5853 Q4072.33 69.0158 4077.08 73.4718 Q4081.88 77.87 4081.88 85.7982 Q4081.88 94.8259 4074.7 100.092 Q4067.59 105.358 4055.09 105.358 Q4049.88 105.358 4044.21 104.317 Q4038.59 103.333 4032.34 101.307 L4032.34 90.312 Q4038.25 93.3791 4043.98 94.9416 Q4049.7 96.4462 4055.32 96.4462 Q4062.84 96.4462 4066.89 93.9 Q4070.94 91.2958 4070.94 86.6083 Q4070.94 82.2681 4067.99 79.9533 Q4065.1 77.6385 4055.2 75.4973 L4051.5 74.6292 Q4041.6 72.5459 4037.2 68.2635 Q4032.81 63.9233 4032.81 56.4002 Q4032.81 47.2567 4039.29 42.2799 Q4045.77 37.303 4057.69 37.303 Q4063.59 37.303 4068.8 38.1711 Q4074.01 39.0391 4078.41 40.7752 Z" fill="#000000" fill-rule="evenodd" fill-opacity="1" /><path clip-path="url(#clip560)" d="M 0 0 M4140.79 17.28 L4140.79 49.3979 L4130.95 49.3979 L4130.95 17.28 L4140.79 17.28 Z" fill="#000000" fill-rule="evenodd" fill-opacity="1" /><path clip-path="url(#clip560)" d="M 0 0 M4177.08 46.3308 Q4168.51 46.3308 4163.53 53.0437 Q4158.56 59.6988 4158.56 71.3306 Q4158.56 82.9625 4163.48 89.6754 Q4168.45 96.3305 4177.08 96.3305 Q4185.58 96.3305 4190.56 89.6176 Q4195.54 82.9046 4195.54 71.3306 Q4195.54 59.8145 4190.56 53.1016 Q4185.58 46.3308 4177.08 46.3308 M4177.08 37.303 Q4190.97 37.303 4198.89 46.3308 Q4206.82 55.3585 4206.82 71.3306 Q4206.82 87.2449 4198.89 96.3305 Q4190.97 105.358 4177.08 105.358 Q4163.13 105.358 4155.2 96.3305 Q4147.33 87.2449 4147.33 71.3306 Q4147.33 55.3585 4155.2 46.3308 Q4163.13 37.303 4177.08 37.303 Z" fill="#000000" fill-rule="evenodd" fill-opacity="1" /><path clip-path="url(#clip560)" d="M 0 0 M4228.06 17.28 L4228.06 49.3979 L4218.22 49.3979 L4218.22 17.28 L4228.06 17.28 Z" fill="#000000" fill-rule="evenodd" fill-opacity="1" /><path clip-path="url(#clip560)" d="M 0 0 M4302.02 46.3308 Q4293.45 46.3308 4288.48 53.0437 Q4283.5 59.6988 4283.5 71.3306 Q4283.5 82.9625 4288.42 89.6754 Q4293.4 96.3305 4302.02 96.3305 Q4310.52 96.3305 4315.5 89.6176 Q4320.48 82.9046 4320.48 71.3306 Q4320.48 59.8145 4315.5 53.1016 Q4310.52 46.3308 4302.02 46.3308 M4302.02 37.303 Q4315.91 37.303 4323.83 46.3308 Q4331.76 55.3585 4331.76 71.3306 Q4331.76 87.2449 4323.83 96.3305 Q4315.91 105.358 4302.02 105.358 Q4288.07 105.358 4280.14 96.3305 Q4272.27 87.2449 4272.27 71.3306 Q4272.27 55.3585 4280.14 46.3308 Q4288.07 37.303 4302.02 37.303 Z" fill="#000000" fill-rule="evenodd" fill-opacity="1" /><path clip-path="url(#clip560)" d="M 0 0 M4396.81 64.5598 L4396.81 103.68 L4386.16 103.68 L4386.16 64.9071 Q4386.16 55.7057 4382.57 51.134 Q4378.99 46.5623 4371.81 46.5623 Q4363.19 46.5623 4358.21 52.0599 Q4353.23 57.5576 4353.23 67.0483 L4353.23 103.68 L4342.53 103.68 L4342.53 38.8655 L4353.23 38.8655 L4353.23 48.9349 Q4357.05 43.09 4362.2 40.1965 Q4367.41 37.303 4374.18 37.303 Q4385.35 37.303 4391.08 44.2474 Q4396.81 51.134 4396.81 64.5598 Z" fill="#000000" fill-rule="evenodd" fill-opacity="1" /><path clip-path="url(#clip560)" d="M 0 0 M4455.72 17.28 L4455.72 49.3979 L4445.88 49.3979 L4445.88 17.28 L4455.72 17.28 Z" fill="#000000" fill-rule="evenodd" fill-opacity="1" /><path clip-path="url(#clip560)" d="M 0 0 M4522.33 68.6107 L4522.33 73.819 L4473.37 73.819 Q4474.07 84.8144 4479.97 90.6014 Q4485.93 96.3305 4496.52 96.3305 Q4502.65 96.3305 4508.38 94.8259 Q4514.17 93.3213 4519.84 90.312 L4519.84 100.381 Q4514.11 102.812 4508.09 104.085 Q4502.07 105.358 4495.88 105.358 Q4480.37 105.358 4471.29 96.3305 Q4462.26 87.3028 4462.26 71.9093 Q4462.26 55.9951 4470.82 46.678 Q4479.45 37.303 4494.03 37.303 Q4507.11 37.303 4514.69 45.7521 Q4522.33 54.1432 4522.33 68.6107 M4511.68 65.4858 Q4511.57 56.7474 4506.76 51.5391 Q4502.02 46.3308 4494.15 46.3308 Q4485.23 46.3308 4479.85 51.3655 Q4474.53 56.4002 4473.72 65.5436 L4511.68 65.4858 Z" fill="#000000" fill-rule="evenodd" fill-opacity="1" /><path clip-path="url(#clip560)" d="M 0 0 M4543.57 17.28 L4543.57 49.3979 L4533.73 49.3979 L4533.73 17.28 L4543.57 17.28 Z" fill="#000000" fill-rule="evenodd" fill-opacity="1" /><path clip-path="url(#clip563)" d="
M2558.99 2344.51 L4611.02 2344.51 L4611.02 2116.51 L2558.99 2116.51 L2558.99 2344.51 L2558.99 2344.51  Z
  " fill="#b3b3b3" fill-rule="evenodd" fill-opacity="1"/>
<polyline clip-path="url(#clip563)" style="stroke:#000000; stroke-width:4; stroke-opacity:0; fill:none" points="
  2558.99,2344.51 4611.02,2344.51 4611.02,2116.51 2558.99,2116.51 2558.99,2344.51 
  "/>
<path clip-path="url(#clip563)" d="
M2615.99 2116.51 L2844 2116.51 L2844 1888.5 L2615.99 1888.5 L2615.99 2116.51 L2615.99 2116.51  Z
  " fill="#0c0786" fill-rule="evenodd" fill-opacity="1"/>
<polyline clip-path="url(#clip563)" style="stroke:#000000; stroke-width:4; stroke-opacity:0; fill:none" points="
  2615.99,2116.51 2844,2116.51 2844,1888.5 2615.99,1888.5 2615.99,2116.51 
  "/>
<path clip-path="url(#clip563)" d="
M3984.01 1888.5 L4212.02 1888.5 L4212.02 1660.5 L3984.01 1660.5 L3984.01 1888.5 L3984.01 1888.5  Z
  " fill="#3f039c" fill-rule="evenodd" fill-opacity="1"/>
<polyline clip-path="url(#clip563)" style="stroke:#000000; stroke-width:4; stroke-opacity:0; fill:none" points="
  3984.01,1888.5 4212.02,1888.5 4212.02,1660.5 3984.01,1660.5 3984.01,1888.5 
  "/>
<path clip-path="url(#clip563)" d="
M3984.01 1660.5 L4212.02 1660.5 L4212.02 1432.5 L3984.01 1432.5 L3984.01 1660.5 L3984.01 1660.5  Z
  " fill="#6500a7" fill-rule="evenodd" fill-opacity="1"/>
<polyline clip-path="url(#clip563)" style="stroke:#000000; stroke-width:4; stroke-opacity:0; fill:none" points="
  3984.01,1660.5 4212.02,1660.5 4212.02,1432.5 3984.01,1432.5 3984.01,1660.5 
  "/>
<path clip-path="url(#clip563)" d="
M3642.01 2116.51 L3870.01 2116.51 L3870.01 1888.5 L3642.01 1888.5 L3642.01 2116.51 L3642.01 2116.51  Z
  " fill="#8908a5" fill-rule="evenodd" fill-opacity="1"/>
<polyline clip-path="url(#clip563)" style="stroke:#000000; stroke-width:4; stroke-opacity:0; fill:none" points="
  3642.01,2116.51 3870.01,2116.51 3870.01,1888.5 3642.01,1888.5 3642.01,2116.51 
  "/>
<path clip-path="url(#clip563)" d="
M3984.01 2116.51 L4212.02 2116.51 L4212.02 1888.5 L3984.01 1888.5 L3984.01 2116.51 L3984.01 2116.51  Z
  " fill="#a92395" fill-rule="evenodd" fill-opacity="1"/>
<polyline clip-path="url(#clip563)" style="stroke:#000000; stroke-width:4; stroke-opacity:0; fill:none" points="
  3984.01,2116.51 4212.02,2116.51 4212.02,1888.5 3984.01,1888.5 3984.01,2116.51 
  "/>
<path clip-path="url(#clip563)" d="
M4326.02 2116.51 L4554.02 2116.51 L4554.02 1888.5 L4326.02 1888.5 L4326.02 2116.51 L4326.02 2116.51  Z
  " fill="#c33e7f" fill-rule="evenodd" fill-opacity="1"/>
<polyline clip-path="url(#clip563)" style="stroke:#000000; stroke-width:4; stroke-opacity:0; fill:none" points="
  4326.02,2116.51 4554.02,2116.51 4554.02,1888.5 4326.02,1888.5 4326.02,2116.51 
  "/>
<path clip-path="url(#clip560)" d="M 0 0 M2750.5 1987.21 L2750.5 1995.17 Q2746.89 1993.18 2743.24 1992.21 Q2739.62 1991.19 2735.92 1991.19 Q2727.63 1991.19 2723.05 1996.46 Q2718.47 2001.7 2718.47 2011.19 Q2718.47 2020.68 2723.05 2025.96 Q2727.63 2031.19 2735.92 2031.19 Q2739.62 2031.19 2743.24 2030.21 Q2746.89 2029.2 2750.5 2027.21 L2750.5 2035.08 Q2746.94 2036.74 2743.1 2037.58 Q2739.3 2038.41 2734.99 2038.41 Q2723.28 2038.41 2716.38 2031.05 Q2709.49 2023.69 2709.49 2011.19 Q2709.49 1998.5 2716.43 1991.23 Q2723.42 1983.96 2735.55 1983.96 Q2739.49 1983.96 2743.24 1984.8 Q2746.99 1985.59 2750.5 1987.21 Z" fill="#ffffff" fill-rule="evenodd" fill-opacity="1" /><path clip-path="url(#clip560)" d="M 0 0 M4122.04 1781.01 L4122.04 1785.17 L4082.88 1785.17 Q4083.43 1793.97 4088.15 1798.6 Q4092.92 1803.18 4101.4 1803.18 Q4106.3 1803.18 4110.89 1801.98 Q4115.52 1800.78 4120.05 1798.37 L4120.05 1806.42 Q4115.47 1808.37 4110.65 1809.39 Q4105.84 1810.41 4100.89 1810.41 Q4088.48 1810.41 4081.21 1803.18 Q4073.99 1795.96 4073.99 1783.65 Q4073.99 1770.92 4080.84 1763.46 Q4087.74 1755.96 4099.4 1755.96 Q4109.87 1755.96 4115.93 1762.72 Q4122.04 1769.43 4122.04 1781.01 M4113.52 1778.51 Q4113.43 1771.52 4109.59 1767.35 Q4105.79 1763.18 4099.5 1763.18 Q4092.37 1763.18 4088.06 1767.21 Q4083.8 1771.24 4083.15 1778.55 L4113.52 1778.51 Z" fill="#ffffff" fill-rule="evenodd" fill-opacity="1" /><path clip-path="url(#clip560)" d="M 0 0 M4098.02 1535.18 Q4091.16 1535.18 4087.18 1540.55 Q4083.2 1545.87 4083.2 1555.18 Q4083.2 1564.49 4087.14 1569.86 Q4091.12 1575.18 4098.02 1575.18 Q4104.82 1575.18 4108.8 1569.81 Q4112.78 1564.44 4112.78 1555.18 Q4112.78 1545.97 4108.8 1540.6 Q4104.82 1535.18 4098.02 1535.18 M4098.02 1527.96 Q4109.13 1527.96 4115.47 1535.18 Q4121.81 1542.4 4121.81 1555.18 Q4121.81 1567.91 4115.47 1575.18 Q4109.13 1582.4 4098.02 1582.4 Q4086.86 1582.4 4080.52 1575.18 Q4074.22 1567.91 4074.22 1555.18 Q4074.22 1542.4 4080.52 1535.18 Q4086.86 1527.96 4098.02 1527.96 Z" fill="#ffffff" fill-rule="evenodd" fill-opacity="1" /><path clip-path="url(#clip560)" d="M 0 0 M3741.38 2029.29 L3741.38 2056.79 L3732.82 2056.79 L3732.82 1985.21 L3741.38 1985.21 L3741.38 1993.09 Q3744.07 1988.46 3748.14 1986.23 Q3752.26 1983.96 3757.95 1983.96 Q3767.4 1983.96 3773.28 1991.46 Q3779.2 1998.96 3779.2 2011.19 Q3779.2 2023.41 3773.28 2030.91 Q3767.4 2038.41 3757.95 2038.41 Q3752.26 2038.41 3748.14 2036.19 Q3744.07 2033.92 3741.38 2029.29 M3770.36 2011.19 Q3770.36 2001.79 3766.47 1996.46 Q3762.63 1991.09 3755.87 1991.09 Q3749.11 1991.09 3745.22 1996.46 Q3741.38 2001.79 3741.38 2011.19 Q3741.38 2020.59 3745.22 2025.96 Q3749.11 2031.28 3755.87 2031.28 Q3762.63 2031.28 3766.47 2025.96 Q3770.36 2020.59 3770.36 2011.19 Z" fill="#ffffff" fill-rule="evenodd" fill-opacity="1" /><path clip-path="url(#clip560)" d="M 0 0 M4113.2 1993.18 Q4111.77 1992.34 4110.05 1991.97 Q4108.39 1991.56 4106.35 1991.56 Q4099.13 1991.56 4095.24 1996.28 Q4091.4 2000.96 4091.4 2009.75 L4091.4 2037.07 L4082.83 2037.07 L4082.83 1985.21 L4091.4 1985.21 L4091.4 1993.27 Q4094.08 1988.55 4098.39 1986.28 Q4102.69 1983.96 4108.85 1983.96 Q4109.73 1983.96 4110.79 1984.1 Q4111.86 1984.2 4113.15 1984.43 L4113.2 1993.18 Z" fill="#ffffff" fill-rule="evenodd" fill-opacity="1" /><path clip-path="url(#clip560)" d="M 0 0 M4405.23 1985.21 L4413.75 1985.21 L4424.4 2025.68 L4435 1985.21 L4445.04 1985.21 L4455.69 2025.68 L4466.29 1985.21 L4474.81 1985.21 L4461.25 2037.07 L4451.2 2037.07 L4440.04 1994.57 L4428.84 2037.07 L4418.79 2037.07 L4405.23 1985.21 Z" fill="#ffffff" fill-rule="evenodd" fill-opacity="1" /><path clip-path="url(#clip560)" d="
M4958.99 2344.51 L7011.02 2344.51 L7011.02 292.48 L4958.99 292.48  Z
  " fill="#ffffff" fill-rule="evenodd" fill-opacity="1"/>
<defs>
  <clipPath id="clip564">
    <rect x="4958" y="292" width="2053" height="2053"/>
  </clipPath>
</defs>
<polyline clip-path="url(#clip560)" style="stroke:#000000; stroke-width:4; stroke-opacity:1; fill:none" points="
  4958.99,2344.51 7011.02,2344.51 
  "/>
<polyline clip-path="url(#clip560)" style="stroke:#000000; stroke-width:4; stroke-opacity:1; fill:none" points="
  4958.99,292.48 7011.02,292.48 
  "/>
<path clip-path="url(#clip560)" d="M 0 0 M5868.72 2460.97 L5868.72 2479.38 L5890.65 2479.38 L5890.65 2487.65 L5868.72 2487.65 L5868.72 2522.84 Q5868.72 2530.77 5870.86 2533.02 Q5873.06 2535.28 5879.71 2535.28 L5890.65 2535.28 L5890.65 2544.19 L5879.71 2544.19 Q5867.39 2544.19 5862.7 2539.62 Q5858.01 2534.99 5858.01 2522.84 L5858.01 2487.65 L5850.2 2487.65 L5850.2 2479.38 L5858.01 2479.38 L5858.01 2460.97 L5868.72 2460.97 Z" fill="#000000" fill-rule="evenodd" fill-opacity="1" /><path clip-path="url(#clip560)" d="M 0 0 M5940.88 2490.37 L6015.07 2490.37 L6015.07 2500.09 L5940.88 2500.09 L5940.88 2490.37 M5940.88 2513.98 L6015.07 2513.98 L6015.07 2523.82 L5940.88 2523.82 L5940.88 2513.98 Z" fill="#000000" fill-rule="evenodd" fill-opacity="1" /><path clip-path="url(#clip560)" d="M 0 0 M6065.77 2542.4 L6065.77 2531.75 Q6070.16 2533.83 6074.68 2534.93 Q6079.19 2536.03 6083.53 2536.03 Q6095.11 2536.03 6101.18 2528.28 Q6107.32 2520.47 6108.18 2504.61 Q6104.83 2509.59 6099.68 2512.25 Q6094.53 2514.91 6088.28 2514.91 Q6075.31 2514.91 6067.73 2507.1 Q6060.21 2499.23 6060.21 2485.63 Q6060.21 2472.32 6068.08 2464.27 Q6075.95 2456.23 6089.03 2456.23 Q6104.02 2456.23 6111.89 2467.75 Q6119.82 2479.2 6119.82 2501.08 Q6119.82 2521.51 6110.09 2533.72 Q6100.43 2545.87 6084.05 2545.87 Q6079.65 2545.87 6075.14 2545 Q6070.63 2544.13 6065.77 2542.4 M6089.03 2505.77 Q6096.9 2505.77 6101.47 2500.38 Q6106.1 2495 6106.1 2485.63 Q6106.1 2476.31 6101.47 2470.93 Q6096.9 2465.49 6089.03 2465.49 Q6081.16 2465.49 6076.53 2470.93 Q6071.96 2476.31 6071.96 2485.63 Q6071.96 2495 6076.53 2500.38 Q6081.16 2505.77 6089.03 2505.77 Z" fill="#000000" fill-rule="evenodd" fill-opacity="1" /><polyline clip-path="url(#clip560)" style="stroke:#000000; stroke-width:4; stroke-opacity:1; fill:none" points="
  4958.99,2344.51 4958.99,292.48 
  "/>
<polyline clip-path="url(#clip560)" style="stroke:#000000; stroke-width:4; stroke-opacity:1; fill:none" points="
  7011.02,2344.51 7011.02,292.48 
  "/>
<path clip-path="url(#clip560)" d="M 0 0 M5050.72 13.7499 Q5042.97 27.06 5039.21 40.0808 Q5035.45 53.1016 5035.45 66.4696 Q5035.45 79.8375 5039.21 92.974 Q5043.03 106.053 5050.72 119.305 L5041.47 119.305 Q5032.78 105.705 5028.44 92.5689 Q5024.16 79.4324 5024.16 66.4696 Q5024.16 53.5645 5028.44 40.4859 Q5032.73 27.4073 5041.47 13.7499 L5050.72 13.7499 Z" fill="#000000" fill-rule="evenodd" fill-opacity="1" /><path clip-path="url(#clip560)" d="M 0 0 M5061.89 38.8655 L5072.54 38.8655 L5072.54 103.68 L5061.89 103.68 L5061.89 38.8655 M5061.89 13.6342 L5072.54 13.6342 L5072.54 27.1179 L5061.89 27.1179 L5061.89 13.6342 Z" fill="#000000" fill-rule="evenodd" fill-opacity="1" /><path clip-path="url(#clip560)" d="M 0 0 M5083.71 38.8655 L5094.36 38.8655 L5094.36 103.68 L5083.71 103.68 L5083.71 38.8655 M5083.71 13.6342 L5094.36 13.6342 L5094.36 27.1179 L5083.71 27.1179 L5083.71 13.6342 Z" fill="#000000" fill-rule="evenodd" fill-opacity="1" /><path clip-path="url(#clip560)" d="M 0 0 M5105.53 38.8655 L5116.18 38.8655 L5116.18 103.68 L5105.53 103.68 L5105.53 38.8655 M5105.53 13.6342 L5116.18 13.6342 L5116.18 27.1179 L5105.53 27.1179 L5105.53 13.6342 Z" fill="#000000" fill-rule="evenodd" fill-opacity="1" /><path clip-path="url(#clip560)" d="M 0 0 M5125.67 13.7499 L5134.93 13.7499 Q5143.61 27.4073 5147.89 40.4859 Q5152.23 53.5645 5152.23 66.4696 Q5152.23 79.4324 5147.89 92.5689 Q5143.61 105.705 5134.93 119.305 L5125.67 119.305 Q5133.36 106.053 5137.12 92.974 Q5140.94 79.8375 5140.94 66.4696 Q5140.94 53.1016 5137.12 40.0808 Q5133.36 27.06 5125.67 13.7499 Z" fill="#000000" fill-rule="evenodd" fill-opacity="1" /><path clip-path="url(#clip560)" d="M 0 0 M5189.55 17.28 L5262.64 17.28 L5262.64 27.1179 L5231.97 27.1179 L5231.97 103.68 L5220.23 103.68 L5220.23 27.1179 L5189.55 27.1179 L5189.55 17.28 Z" fill="#000000" fill-rule="evenodd" fill-opacity="1" /><path clip-path="url(#clip560)" d="M 0 0 M5293.95 48.8192 Q5292.16 47.7775 5290.02 47.3146 Q5287.93 46.7937 5285.39 46.7937 Q5276.36 46.7937 5271.5 52.6965 Q5266.7 58.5414 5266.7 69.5367 L5266.7 103.68 L5255.99 103.68 L5255.99 38.8655 L5266.7 38.8655 L5266.7 48.9349 Q5270.05 43.0322 5275.43 40.1965 Q5280.82 37.303 5288.51 37.303 Q5289.61 37.303 5290.94 37.4767 Q5292.27 37.5924 5293.89 37.8817 L5293.95 48.8192 Z" fill="#000000" fill-rule="evenodd" fill-opacity="1" /><path clip-path="url(#clip560)" d="M 0 0 M5304.02 78.1014 L5304.02 38.8655 L5314.67 38.8655 L5314.67 77.6963 Q5314.67 86.8977 5318.26 91.5273 Q5321.85 96.099 5329.02 96.099 Q5337.64 96.099 5342.62 90.6014 Q5347.66 85.1037 5347.66 75.613 L5347.66 38.8655 L5358.3 38.8655 L5358.3 103.68 L5347.66 103.68 L5347.66 93.7263 Q5343.78 99.6291 5338.63 102.523 Q5333.54 105.358 5326.76 105.358 Q5315.6 105.358 5309.81 98.4138 Q5304.02 91.4694 5304.02 78.1014 M5330.82 37.303 L5330.82 37.303 Z" fill="#000000" fill-rule="evenodd" fill-opacity="1" /><path clip-path="url(#clip560)" d="M 0 0 M5424.91 68.6107 L5424.91 73.819 L5375.95 73.819 Q5376.65 84.8144 5382.55 90.6014 Q5388.51 96.3305 5399.1 96.3305 Q5405.24 96.3305 5410.97 94.8259 Q5416.75 93.3213 5422.42 90.312 L5422.42 100.381 Q5416.69 102.812 5410.68 104.085 Q5404.66 105.358 5398.47 105.358 Q5382.96 105.358 5373.87 96.3305 Q5364.84 87.3028 5364.84 71.9093 Q5364.84 55.9951 5373.41 46.678 Q5382.03 37.303 5396.61 37.303 Q5409.69 37.303 5417.27 45.7521 Q5424.91 54.1432 5424.91 68.6107 M5414.26 65.4858 Q5414.15 56.7474 5409.35 51.5391 Q5404.6 46.3308 5396.73 46.3308 Q5387.82 46.3308 5382.44 51.3655 Q5377.11 56.4002 5376.3 65.5436 L5414.26 65.4858 Z" fill="#000000" fill-rule="evenodd" fill-opacity="1" /><path clip-path="url(#clip560)" d="M 0 0 M5516.41 70.5205 Q5516.41 58.9464 5511.6 52.5807 Q5506.86 46.215 5498.23 46.215 Q5489.67 46.215 5484.87 52.5807 Q5480.12 58.9464 5480.12 70.5205 Q5480.12 82.0366 5484.87 88.4023 Q5489.67 94.768 5498.23 94.768 Q5506.86 94.768 5511.6 88.4023 Q5516.41 82.0366 5516.41 70.5205 M5527.05 95.6361 Q5527.05 112.187 5519.7 120.231 Q5512.35 128.333 5497.19 128.333 Q5491.58 128.333 5486.6 127.465 Q5481.63 126.654 5476.94 124.918 L5476.94 114.56 Q5481.63 117.106 5486.2 118.321 Q5490.77 119.536 5495.51 119.536 Q5505.99 119.536 5511.2 114.039 Q5516.41 108.599 5516.41 97.5458 L5516.41 92.2796 Q5513.11 98.0087 5507.96 100.844 Q5502.81 103.68 5495.63 103.68 Q5483.71 103.68 5476.42 94.5944 Q5469.13 85.5088 5469.13 70.5205 Q5469.13 55.4742 5476.42 46.3886 Q5483.71 37.303 5495.63 37.303 Q5502.81 37.303 5507.96 40.1387 Q5513.11 42.9743 5516.41 48.7034 L5516.41 38.8655 L5527.05 38.8655 L5527.05 95.6361 Z" fill="#000000" fill-rule="evenodd" fill-opacity="1" /><path clip-path="url(#clip560)" d="M 0 0 M5563.34 46.3308 Q5554.77 46.3308 5549.8 53.0437 Q5544.82 59.6988 5544.82 71.3306 Q5544.82 82.9625 5549.74 89.6754 Q5554.72 96.3305 5563.34 96.3305 Q5571.84 96.3305 5576.82 89.6176 Q5581.8 82.9046 5581.8 71.3306 Q5581.8 59.8145 5576.82 53.1016 Q5571.84 46.3308 5563.34 46.3308 M5563.34 37.303 Q5577.23 37.303 5585.15 46.3308 Q5593.08 55.3585 5593.08 71.3306 Q5593.08 87.2449 5585.15 96.3305 Q5577.23 105.358 5563.34 105.358 Q5549.39 105.358 5541.46 96.3305 Q5533.59 87.2449 5533.59 71.3306 Q5533.59 55.3585 5541.46 46.3308 Q5549.39 37.303 5563.34 37.303 Z" fill="#000000" fill-rule="evenodd" fill-opacity="1" /><path clip-path="url(#clip560)" d="M 0 0 M5633.71 71.0992 Q5620.8 71.0992 5615.83 74.0505 Q5610.85 77.0019 5610.85 84.1199 Q5610.85 89.7912 5614.55 93.1476 Q5618.31 96.4462 5624.74 96.4462 Q5633.59 96.4462 5638.92 90.1963 Q5644.3 83.8884 5644.3 73.4718 L5644.3 71.0992 L5633.71 71.0992 M5654.95 66.701 L5654.95 103.68 L5644.3 103.68 L5644.3 93.8421 Q5640.65 99.7448 5635.21 102.58 Q5629.77 105.358 5621.9 105.358 Q5611.95 105.358 5606.05 99.8027 Q5600.2 94.1893 5600.2 84.8144 Q5600.2 73.8769 5607.49 68.3214 Q5614.84 62.7659 5629.37 62.7659 L5644.3 62.7659 L5644.3 61.7242 Q5644.3 54.3747 5639.44 50.3817 Q5634.63 46.3308 5625.9 46.3308 Q5620.34 46.3308 5615.07 47.6618 Q5609.81 48.9928 5604.95 51.6548 L5604.95 41.8169 Q5610.79 39.56 5616.29 38.4604 Q5621.79 37.303 5626.99 37.303 Q5641.06 37.303 5648 44.5947 Q5654.95 51.8863 5654.95 66.701 Z" fill="#000000" fill-rule="evenodd" fill-opacity="1" /><path clip-path="url(#clip560)" d="M 0 0 M5666.11 13.6342 L5676.76 13.6342 L5676.76 103.68 L5666.11 103.68 L5666.11 13.6342 Z" fill="#000000" fill-rule="evenodd" fill-opacity="1" /><path clip-path="url(#clip560)" d="M 0 0 M5725.61 38.8655 L5736.25 38.8655 L5736.25 103.68 L5725.61 103.68 L5725.61 38.8655 M5725.61 13.6342 L5736.25 13.6342 L5736.25 27.1179 L5725.61 27.1179 L5725.61 13.6342 Z" fill="#000000" fill-rule="evenodd" fill-opacity="1" /><path clip-path="url(#clip560)" d="M 0 0 M5788.74 40.7752 L5788.74 50.8446 Q5784.23 48.5298 5779.37 47.3724 Q5774.51 46.215 5769.3 46.215 Q5761.37 46.215 5757.38 48.6456 Q5753.44 51.0761 5753.44 55.9372 Q5753.44 59.6409 5756.28 61.7821 Q5759.11 63.8654 5767.68 65.7751 L5771.32 66.5853 Q5782.67 69.0158 5787.41 73.4718 Q5792.21 77.87 5792.21 85.7982 Q5792.21 94.8259 5785.04 100.092 Q5777.92 105.358 5765.42 105.358 Q5760.21 105.358 5754.54 104.317 Q5748.93 103.333 5742.68 101.307 L5742.68 90.312 Q5748.58 93.3791 5754.31 94.9416 Q5760.04 96.4462 5765.65 96.4462 Q5773.17 96.4462 5777.23 93.9 Q5781.28 91.2958 5781.28 86.6083 Q5781.28 82.2681 5778.32 79.9533 Q5775.43 77.6385 5765.54 75.4973 L5761.83 74.6292 Q5751.94 72.5459 5747.54 68.2635 Q5743.14 63.9233 5743.14 56.4002 Q5743.14 47.2567 5749.62 42.2799 Q5756.1 37.303 5768.02 37.303 Q5773.93 37.303 5779.14 38.1711 Q5784.34 39.0391 5788.74 40.7752 Z" fill="#000000" fill-rule="evenodd" fill-opacity="1" /><path clip-path="url(#clip560)" d="M 0 0 M5891.52 51.3076 Q5895.51 44.1317 5901.07 40.7174 Q5906.62 37.303 5914.15 37.303 Q5924.27 37.303 5929.77 44.4211 Q5935.27 51.4812 5935.27 64.5598 L5935.27 103.68 L5924.56 103.68 L5924.56 64.9071 Q5924.56 55.59 5921.26 51.0761 Q5917.97 46.5623 5911.19 46.5623 Q5902.92 46.5623 5898.12 52.0599 Q5893.31 57.5576 5893.31 67.0483 L5893.31 103.68 L5882.61 103.68 L5882.61 64.9071 Q5882.61 55.5321 5879.31 51.0761 Q5876.01 46.5623 5869.12 46.5623 Q5860.96 46.5623 5856.16 52.1178 Q5851.36 57.6154 5851.36 67.0483 L5851.36 103.68 L5840.65 103.68 L5840.65 38.8655 L5851.36 38.8655 L5851.36 48.9349 Q5855 42.9743 5860.1 40.1387 Q5865.19 37.303 5872.19 37.303 Q5879.25 37.303 5884.17 40.891 Q5889.15 44.4789 5891.52 51.3076 Z" fill="#000000" fill-rule="evenodd" fill-opacity="1" /><path clip-path="url(#clip560)" d="M 0 0 M5946.44 38.8655 L5957.09 38.8655 L5957.09 103.68 L5946.44 103.68 L5946.44 38.8655 M5946.44 13.6342 L5957.09 13.6342 L5957.09 27.1179 L5946.44 27.1179 L5946.44 13.6342 Z" fill="#000000" fill-rule="evenodd" fill-opacity="1" /><path clip-path="url(#clip560)" d="M 0 0 M6009.57 40.7752 L6009.57 50.8446 Q6005.06 48.5298 6000.2 47.3724 Q5995.34 46.215 5990.13 46.215 Q5982.2 46.215 5978.21 48.6456 Q5974.27 51.0761 5974.27 55.9372 Q5974.27 59.6409 5977.11 61.7821 Q5979.94 63.8654 5988.51 65.7751 L5992.15 66.5853 Q6003.5 69.0158 6008.24 73.4718 Q6013.05 77.87 6013.05 85.7982 Q6013.05 94.8259 6005.87 100.092 Q5998.75 105.358 5986.25 105.358 Q5981.04 105.358 5975.37 104.317 Q5969.76 103.333 5963.51 101.307 L5963.51 90.312 Q5969.41 93.3791 5975.14 94.9416 Q5980.87 96.4462 5986.48 96.4462 Q5994.01 96.4462 5998.06 93.9 Q6002.11 91.2958 6002.11 86.6083 Q6002.11 82.2681 5999.16 79.9533 Q5996.26 77.6385 5986.37 75.4973 L5982.66 74.6292 Q5972.77 72.5459 5968.37 68.2635 Q5963.97 63.9233 5963.97 56.4002 Q5963.97 47.2567 5970.45 42.2799 Q5976.94 37.303 5988.86 37.303 Q5994.76 37.303 5999.97 38.1711 Q6005.18 39.0391 6009.57 40.7752 Z" fill="#000000" fill-rule="evenodd" fill-opacity="1" /><path clip-path="url(#clip560)" d="M 0 0 M6065.53 40.7752 L6065.53 50.8446 Q6061.02 48.5298 6056.16 47.3724 Q6051.3 46.215 6046.09 46.215 Q6038.16 46.215 6034.17 48.6456 Q6030.23 51.0761 6030.23 55.9372 Q6030.23 59.6409 6033.07 61.7821 Q6035.9 63.8654 6044.47 65.7751 L6048.12 66.5853 Q6059.46 69.0158 6064.2 73.4718 Q6069.01 77.87 6069.01 85.7982 Q6069.01 94.8259 6061.83 100.092 Q6054.71 105.358 6042.21 105.358 Q6037 105.358 6031.33 104.317 Q6025.72 103.333 6019.47 101.307 L6019.47 90.312 Q6025.37 93.3791 6031.1 94.9416 Q6036.83 96.4462 6042.44 96.4462 Q6049.97 96.4462 6054.02 93.9 Q6058.07 91.2958 6058.07 86.6083 Q6058.07 82.2681 6055.12 79.9533 Q6052.22 77.6385 6042.33 75.4973 L6038.62 74.6292 Q6028.73 72.5459 6024.33 68.2635 Q6019.93 63.9233 6019.93 56.4002 Q6019.93 47.2567 6026.41 42.2799 Q6032.9 37.303 6044.82 37.303 Q6050.72 37.303 6055.93 38.1711 Q6061.14 39.0391 6065.53 40.7752 Z" fill="#000000" fill-rule="evenodd" fill-opacity="1" /><path clip-path="url(#clip560)" d="M 0 0 M6090.48 93.9578 L6090.48 128.333 L6079.77 128.333 L6079.77 38.8655 L6090.48 38.8655 L6090.48 48.7034 Q6093.83 42.9164 6098.93 40.1387 Q6104.08 37.303 6111.19 37.303 Q6123 37.303 6130.35 46.678 Q6137.76 56.0529 6137.76 71.3306 Q6137.76 86.6083 6130.35 95.9833 Q6123 105.358 6111.19 105.358 Q6104.08 105.358 6098.93 102.58 Q6093.83 99.7448 6090.48 93.9578 M6126.7 71.3306 Q6126.7 59.583 6121.84 52.928 Q6117.04 46.215 6108.59 46.215 Q6100.14 46.215 6095.28 52.928 Q6090.48 59.583 6090.48 71.3306 Q6090.48 83.0783 6095.28 89.7912 Q6100.14 96.4462 6108.59 96.4462 Q6117.04 96.4462 6121.84 89.7912 Q6126.7 83.0783 6126.7 71.3306 Z" fill="#000000" fill-rule="evenodd" fill-opacity="1" /><path clip-path="url(#clip560)" d="M 0 0 M6204.36 68.6107 L6204.36 73.819 L6155.41 73.819 Q6156.1 84.8144 6162 90.6014 Q6167.96 96.3305 6178.55 96.3305 Q6184.69 96.3305 6190.42 94.8259 Q6196.2 93.3213 6201.88 90.312 L6201.88 100.381 Q6196.15 102.812 6190.13 104.085 Q6184.11 105.358 6177.92 105.358 Q6162.41 105.358 6153.32 96.3305 Q6144.3 87.3028 6144.3 71.9093 Q6144.3 55.9951 6152.86 46.678 Q6161.48 37.303 6176.07 37.303 Q6189.14 37.303 6196.73 45.7521 Q6204.36 54.1432 6204.36 68.6107 M6193.72 65.4858 Q6193.6 56.7474 6188.8 51.5391 Q6184.05 46.3308 6176.18 46.3308 Q6167.27 46.3308 6161.89 51.3655 Q6156.56 56.4002 6155.75 65.5436 L6193.72 65.4858 Z" fill="#000000" fill-rule="evenodd" fill-opacity="1" /><path clip-path="url(#clip560)" d="M 0 0 M6215.53 13.6342 L6226.18 13.6342 L6226.18 103.68 L6215.53 103.68 L6215.53 13.6342 Z" fill="#000000" fill-rule="evenodd" fill-opacity="1" /><path clip-path="url(#clip560)" d="M 0 0 M6237.35 13.6342 L6248 13.6342 L6248 103.68 L6237.35 103.68 L6237.35 13.6342 Z" fill="#000000" fill-rule="evenodd" fill-opacity="1" /><path clip-path="url(#clip560)" d="M 0 0 M6314.61 68.6107 L6314.61 73.819 L6265.65 73.819 Q6266.34 84.8144 6272.25 90.6014 Q6278.21 96.3305 6288.8 96.3305 Q6294.93 96.3305 6300.66 94.8259 Q6306.45 93.3213 6312.12 90.312 L6312.12 100.381 Q6306.39 102.812 6300.37 104.085 Q6294.35 105.358 6288.16 105.358 Q6272.65 105.358 6263.57 96.3305 Q6254.54 87.3028 6254.54 71.9093 Q6254.54 55.9951 6263.1 46.678 Q6271.73 37.303 6286.31 37.303 Q6299.39 37.303 6306.97 45.7521 Q6314.61 54.1432 6314.61 68.6107 M6303.96 65.4858 Q6303.84 56.7474 6299.04 51.5391 Q6294.29 46.3308 6286.42 46.3308 Q6277.51 46.3308 6272.13 51.3655 Q6266.81 56.4002 6266 65.5436 L6303.96 65.4858 Z" fill="#000000" fill-rule="evenodd" fill-opacity="1" /><path clip-path="url(#clip560)" d="M 0 0 M6368.43 48.7034 L6368.43 13.6342 L6379.07 13.6342 L6379.07 103.68 L6368.43 103.68 L6368.43 93.9578 Q6365.07 99.7448 6359.92 102.58 Q6354.83 105.358 6347.65 105.358 Q6335.9 105.358 6328.5 95.9833 Q6321.15 86.6083 6321.15 71.3306 Q6321.15 56.0529 6328.5 46.678 Q6335.9 37.303 6347.65 37.303 Q6354.83 37.303 6359.92 40.1387 Q6365.07 42.9164 6368.43 48.7034 M6332.14 71.3306 Q6332.14 83.0783 6336.94 89.7912 Q6341.81 96.4462 6350.25 96.4462 Q6358.7 96.4462 6363.56 89.7912 Q6368.43 83.0783 6368.43 71.3306 Q6368.43 59.583 6363.56 52.928 Q6358.7 46.215 6350.25 46.215 Q6341.81 46.215 6336.94 52.928 Q6332.14 59.583 6332.14 71.3306 Z" fill="#000000" fill-rule="evenodd" fill-opacity="1" /><path clip-path="url(#clip560)" d="M 0 0 M6457.37 71.0992 Q6444.47 71.0992 6439.49 74.0505 Q6434.51 77.0019 6434.51 84.1199 Q6434.51 89.7912 6438.22 93.1476 Q6441.98 96.4462 6448.4 96.4462 Q6457.26 96.4462 6462.58 90.1963 Q6467.96 83.8884 6467.96 73.4718 L6467.96 71.0992 L6457.37 71.0992 M6478.61 66.701 L6478.61 103.68 L6467.96 103.68 L6467.96 93.8421 Q6464.32 99.7448 6458.88 102.58 Q6453.44 105.358 6445.57 105.358 Q6435.61 105.358 6429.71 99.8027 Q6423.87 94.1893 6423.87 84.8144 Q6423.87 73.8769 6431.16 68.3214 Q6438.51 62.7659 6453.03 62.7659 L6467.96 62.7659 L6467.96 61.7242 Q6467.96 54.3747 6463.1 50.3817 Q6458.3 46.3308 6449.56 46.3308 Q6444 46.3308 6438.74 47.6618 Q6433.47 48.9928 6428.61 51.6548 L6428.61 41.8169 Q6434.46 39.56 6439.95 38.4604 Q6445.45 37.303 6450.66 37.303 Q6464.72 37.303 6471.67 44.5947 Q6478.61 51.8863 6478.61 66.701 Z" fill="#000000" fill-rule="evenodd" fill-opacity="1" /><path clip-path="url(#clip560)" d="M 0 0 M6531.1 40.7752 L6531.1 50.8446 Q6526.58 48.5298 6521.72 47.3724 Q6516.86 46.215 6511.65 46.215 Q6503.73 46.215 6499.73 48.6456 Q6495.8 51.0761 6495.8 55.9372 Q6495.8 59.6409 6498.63 61.7821 Q6501.47 63.8654 6510.03 65.7751 L6513.68 66.5853 Q6525.02 69.0158 6529.77 73.4718 Q6534.57 77.87 6534.57 85.7982 Q6534.57 94.8259 6527.4 100.092 Q6520.28 105.358 6507.78 105.358 Q6502.57 105.358 6496.9 104.317 Q6491.28 103.333 6485.03 101.307 L6485.03 90.312 Q6490.94 93.3791 6496.67 94.9416 Q6502.4 96.4462 6508.01 96.4462 Q6515.53 96.4462 6519.58 93.9 Q6523.63 91.2958 6523.63 86.6083 Q6523.63 82.2681 6520.68 79.9533 Q6517.79 77.6385 6507.89 75.4973 L6504.19 74.6292 Q6494.29 72.5459 6489.9 68.2635 Q6485.5 63.9233 6485.5 56.4002 Q6485.5 47.2567 6491.98 42.2799 Q6498.46 37.303 6510.38 37.303 Q6516.28 37.303 6521.49 38.1711 Q6526.7 39.0391 6531.1 40.7752 Z" fill="#000000" fill-rule="evenodd" fill-opacity="1" /><path clip-path="url(#clip560)" d="M 0 0 M6593.48 17.28 L6593.48 49.3979 L6583.64 49.3979 L6583.64 17.28 L6593.48 17.28 Z" fill="#000000" fill-rule="evenodd" fill-opacity="1" /><path clip-path="url(#clip560)" d="M 0 0 M6651.29 41.3539 L6651.29 51.3076 Q6646.78 48.8192 6642.21 47.6039 Q6637.7 46.3308 6633.07 46.3308 Q6622.71 46.3308 6616.98 52.928 Q6611.25 59.4673 6611.25 71.3306 Q6611.25 83.194 6616.98 89.7912 Q6622.71 96.3305 6633.07 96.3305 Q6637.7 96.3305 6642.21 95.1152 Q6646.78 93.8421 6651.29 91.3537 L6651.29 101.192 Q6646.84 103.275 6642.04 104.317 Q6637.29 105.358 6631.91 105.358 Q6617.27 105.358 6608.64 96.1569 Q6600.02 86.9556 6600.02 71.3306 Q6600.02 55.4742 6608.7 46.3886 Q6617.44 37.303 6632.6 37.303 Q6637.52 37.303 6642.21 38.3447 Q6646.9 39.3285 6651.29 41.3539 Z" fill="#000000" fill-rule="evenodd" fill-opacity="1" /><path clip-path="url(#clip560)" d="M 0 0 M6656.27 38.8655 L6666.92 38.8655 L6680.23 89.444 L6693.48 38.8655 L6706.04 38.8655 L6719.35 89.444 L6732.6 38.8655 L6743.25 38.8655 L6726.29 103.68 L6713.74 103.68 L6699.79 50.5553 L6685.79 103.68 L6673.23 103.68 L6656.27 38.8655 Z" fill="#000000" fill-rule="evenodd" fill-opacity="1" /><path clip-path="url(#clip560)" d="M 0 0 M6779.53 46.3308 Q6770.97 46.3308 6765.99 53.0437 Q6761.02 59.6988 6761.02 71.3306 Q6761.02 82.9625 6765.94 89.6754 Q6770.91 96.3305 6779.53 96.3305 Q6788.04 96.3305 6793.02 89.6176 Q6798 82.9046 6798 71.3306 Q6798 59.8145 6793.02 53.1016 Q6788.04 46.3308 6779.53 46.3308 M6779.53 37.303 Q6793.42 37.303 6801.35 46.3308 Q6809.28 55.3585 6809.28 71.3306 Q6809.28 87.2449 6801.35 96.3305 Q6793.42 105.358 6779.53 105.358 Q6765.59 105.358 6757.66 96.3305 Q6749.79 87.2449 6749.79 71.3306 Q6749.79 55.3585 6757.66 46.3308 Q6765.59 37.303 6779.53 37.303 Z" fill="#000000" fill-rule="evenodd" fill-opacity="1" /><path clip-path="url(#clip560)" d="M 0 0 M6875.89 68.6107 L6875.89 73.819 L6826.93 73.819 Q6827.62 84.8144 6833.53 90.6014 Q6839.49 96.3305 6850.08 96.3305 Q6856.21 96.3305 6861.94 94.8259 Q6867.73 93.3213 6873.4 90.312 L6873.4 100.381 Q6867.67 102.812 6861.65 104.085 Q6855.63 105.358 6849.44 105.358 Q6833.93 105.358 6824.85 96.3305 Q6815.82 87.3028 6815.82 71.9093 Q6815.82 55.9951 6824.38 46.678 Q6833.01 37.303 6847.59 37.303 Q6860.67 37.303 6868.25 45.7521 Q6875.89 54.1432 6875.89 68.6107 M6865.24 65.4858 Q6865.12 56.7474 6860.32 51.5391 Q6855.58 46.3308 6847.71 46.3308 Q6838.79 46.3308 6833.41 51.3655 Q6828.09 56.4002 6827.28 65.5436 L6865.24 65.4858 Z" fill="#000000" fill-rule="evenodd" fill-opacity="1" /><path clip-path="url(#clip560)" d="M 0 0 M6924.62 48.8192 Q6922.82 47.7775 6920.68 47.3146 Q6918.6 46.7937 6916.05 46.7937 Q6907.02 46.7937 6902.16 52.6965 Q6897.36 58.5414 6897.36 69.5367 L6897.36 103.68 L6886.65 103.68 L6886.65 38.8655 L6897.36 38.8655 L6897.36 48.9349 Q6900.71 43.0322 6906.1 40.1965 Q6911.48 37.303 6919.18 37.303 Q6920.27 37.303 6921.61 37.4767 Q6922.94 37.5924 6924.56 37.8817 L6924.62 48.8192 Z" fill="#000000" fill-rule="evenodd" fill-opacity="1" /><path clip-path="url(#clip560)" d="M 0 0 M6945.85 17.28 L6945.85 49.3979 L6936.02 49.3979 L6936.02 17.28 L6945.85 17.28 Z" fill="#000000" fill-rule="evenodd" fill-opacity="1" /><path clip-path="url(#clip564)" d="
M4958.99 2344.51 L7011.02 2344.51 L7011.02 2116.51 L4958.99 2116.51 L4958.99 2344.51 L4958.99 2344.51  Z
  " fill="#b3b3b3" fill-rule="evenodd" fill-opacity="1"/>
<polyline clip-path="url(#clip564)" style="stroke:#000000; stroke-width:4; stroke-opacity:0; fill:none" points="
  4958.99,2344.51 7011.02,2344.51 7011.02,2116.51 4958.99,2116.51 4958.99,2344.51 
  "/>
<path clip-path="url(#clip564)" d="
M6384.01 1204.49 L6612.02 1204.49 L6612.02 976.491 L6384.01 976.491 L6384.01 1204.49 L6384.01 1204.49  Z
  " fill="#0c0786" fill-rule="evenodd" fill-opacity="1"/>
<polyline clip-path="url(#clip564)" style="stroke:#000000; stroke-width:4; stroke-opacity:0; fill:none" points="
  6384.01,1204.49 6612.02,1204.49 6612.02,976.491 6384.01,976.491 6384.01,1204.49 
  "/>
<path clip-path="url(#clip564)" d="
M6384.01 1888.5 L6612.02 1888.5 L6612.02 1660.5 L6384.01 1660.5 L6384.01 1888.5 L6384.01 1888.5  Z
  " fill="#3f039c" fill-rule="evenodd" fill-opacity="1"/>
<polyline clip-path="url(#clip564)" style="stroke:#000000; stroke-width:4; stroke-opacity:0; fill:none" points="
  6384.01,1888.5 6612.02,1888.5 6612.02,1660.5 6384.01,1660.5 6384.01,1888.5 
  "/>
<path clip-path="url(#clip564)" d="
M6384.01 1660.5 L6612.02 1660.5 L6612.02 1432.5 L6384.01 1432.5 L6384.01 1660.5 L6384.01 1660.5  Z
  " fill="#6500a7" fill-rule="evenodd" fill-opacity="1"/>
<polyline clip-path="url(#clip564)" style="stroke:#000000; stroke-width:4; stroke-opacity:0; fill:none" points="
  6384.01,1660.5 6612.02,1660.5 6612.02,1432.5 6384.01,1432.5 6384.01,1660.5 
  "/>
<path clip-path="url(#clip564)" d="
M6042.01 2116.51 L6270.01 2116.51 L6270.01 1888.5 L6042.01 1888.5 L6042.01 2116.51 L6042.01 2116.51  Z
  " fill="#8908a5" fill-rule="evenodd" fill-opacity="1"/>
<polyline clip-path="url(#clip564)" style="stroke:#000000; stroke-width:4; stroke-opacity:0; fill:none" points="
  6042.01,2116.51 6270.01,2116.51 6270.01,1888.5 6042.01,1888.5 6042.01,2116.51 
  "/>
<path clip-path="url(#clip564)" d="
M6384.01 2116.51 L6612.02 2116.51 L6612.02 1888.5 L6384.01 1888.5 L6384.01 2116.51 L6384.01 2116.51  Z
  " fill="#a92395" fill-rule="evenodd" fill-opacity="1"/>
<polyline clip-path="url(#clip564)" style="stroke:#000000; stroke-width:4; stroke-opacity:0; fill:none" points="
  6384.01,2116.51 6612.02,2116.51 6612.02,1888.5 6384.01,1888.5 6384.01,2116.51 
  "/>
<path clip-path="url(#clip564)" d="
M6384.01 1432.5 L6612.02 1432.5 L6612.02 1204.49 L6384.01 1204.49 L6384.01 1432.5 L6384.01 1432.5  Z
  " fill="#c33e7f" fill-rule="evenodd" fill-opacity="1"/>
<polyline clip-path="url(#clip564)" style="stroke:#000000; stroke-width:4; stroke-opacity:0; fill:none" points="
  6384.01,1432.5 6612.02,1432.5 6612.02,1204.49 6384.01,1204.49 6384.01,1432.5 
  "/>
<path clip-path="url(#clip560)" d="M 0 0 M6518.52 1075.19 L6518.52 1083.15 Q6514.91 1081.16 6511.26 1080.19 Q6507.65 1079.17 6503.94 1079.17 Q6495.65 1079.17 6491.07 1084.45 Q6486.49 1089.68 6486.49 1099.17 Q6486.49 1108.66 6491.07 1113.94 Q6495.65 1119.17 6503.94 1119.17 Q6507.65 1119.17 6511.26 1118.2 Q6514.91 1117.18 6518.52 1115.19 L6518.52 1123.06 Q6514.96 1124.73 6511.12 1125.56 Q6507.32 1126.4 6503.02 1126.4 Q6491.3 1126.4 6484.4 1119.03 Q6477.51 1111.67 6477.51 1099.17 Q6477.51 1086.49 6484.45 1079.22 Q6491.44 1071.95 6503.57 1071.95 Q6507.51 1071.95 6511.26 1072.78 Q6515.01 1073.57 6518.52 1075.19 Z" fill="#ffffff" fill-rule="evenodd" fill-opacity="1" /><path clip-path="url(#clip560)" d="M 0 0 M6522.04 1781.01 L6522.04 1785.17 L6482.88 1785.17 Q6483.43 1793.97 6488.15 1798.6 Q6492.92 1803.18 6501.4 1803.18 Q6506.3 1803.18 6510.89 1801.98 Q6515.52 1800.78 6520.05 1798.37 L6520.05 1806.42 Q6515.47 1808.37 6510.65 1809.39 Q6505.84 1810.41 6500.89 1810.41 Q6488.48 1810.41 6481.21 1803.18 Q6473.99 1795.96 6473.99 1783.65 Q6473.99 1770.92 6480.84 1763.46 Q6487.74 1755.96 6499.4 1755.96 Q6509.87 1755.96 6515.93 1762.72 Q6522.04 1769.43 6522.04 1781.01 M6513.52 1778.51 Q6513.43 1771.52 6509.59 1767.35 Q6505.79 1763.18 6499.5 1763.18 Q6492.37 1763.18 6488.06 1767.21 Q6483.8 1771.24 6483.15 1778.55 L6513.52 1778.51 Z" fill="#ffffff" fill-rule="evenodd" fill-opacity="1" /><path clip-path="url(#clip560)" d="M 0 0 M6498.02 1535.18 Q6491.16 1535.18 6487.18 1540.55 Q6483.2 1545.87 6483.2 1555.18 Q6483.2 1564.49 6487.14 1569.86 Q6491.12 1575.18 6498.02 1575.18 Q6504.82 1575.18 6508.8 1569.81 Q6512.78 1564.44 6512.78 1555.18 Q6512.78 1545.97 6508.8 1540.6 Q6504.82 1535.18 6498.02 1535.18 M6498.02 1527.96 Q6509.13 1527.96 6515.47 1535.18 Q6521.81 1542.4 6521.81 1555.18 Q6521.81 1567.91 6515.47 1575.18 Q6509.13 1582.4 6498.02 1582.4 Q6486.86 1582.4 6480.52 1575.18 Q6474.22 1567.91 6474.22 1555.18 Q6474.22 1542.4 6480.52 1535.18 Q6486.86 1527.96 6498.02 1527.96 Z" fill="#ffffff" fill-rule="evenodd" fill-opacity="1" /><path clip-path="url(#clip560)" d="M 0 0 M6141.38 2029.29 L6141.38 2056.79 L6132.82 2056.79 L6132.82 1985.21 L6141.38 1985.21 L6141.38 1993.09 Q6144.07 1988.46 6148.14 1986.23 Q6152.26 1983.96 6157.95 1983.96 Q6167.4 1983.96 6173.28 1991.46 Q6179.2 1998.96 6179.2 2011.19 Q6179.2 2023.41 6173.28 2030.91 Q6167.4 2038.41 6157.95 2038.41 Q6152.26 2038.41 6148.14 2036.19 Q6144.07 2033.92 6141.38 2029.29 M6170.36 2011.19 Q6170.36 2001.79 6166.47 1996.46 Q6162.63 1991.09 6155.87 1991.09 Q6149.11 1991.09 6145.22 1996.46 Q6141.38 2001.79 6141.38 2011.19 Q6141.38 2020.59 6145.22 2025.96 Q6149.11 2031.28 6155.87 2031.28 Q6162.63 2031.28 6166.47 2025.96 Q6170.36 2020.59 6170.36 2011.19 Z" fill="#ffffff" fill-rule="evenodd" fill-opacity="1" /><path clip-path="url(#clip560)" d="M 0 0 M6513.2 1993.18 Q6511.77 1992.34 6510.05 1991.97 Q6508.39 1991.56 6506.35 1991.56 Q6499.13 1991.56 6495.24 1996.28 Q6491.4 2000.96 6491.4 2009.75 L6491.4 2037.07 L6482.83 2037.07 L6482.83 1985.21 L6491.4 1985.21 L6491.4 1993.27 Q6494.08 1988.55 6498.39 1986.28 Q6502.69 1983.96 6508.85 1983.96 Q6509.73 1983.96 6510.79 1984.1 Q6511.86 1984.2 6513.15 1984.43 L6513.2 1993.18 Z" fill="#ffffff" fill-rule="evenodd" fill-opacity="1" /><path clip-path="url(#clip560)" d="M 0 0 M6463.22 1301.2 L6471.74 1301.2 L6482.39 1341.67 L6492.99 1301.2 L6503.04 1301.2 L6513.69 1341.67 L6524.29 1301.2 L6532.81 1301.2 L6519.24 1353.06 L6509.2 1353.06 L6498.04 1310.56 L6486.84 1353.06 L6476.79 1353.06 L6463.22 1301.2 Z" fill="#ffffff" fill-rule="evenodd" fill-opacity="1" /><path clip-path="url(#clip560)" d="
M7358.99 2344.51 L9411.02 2344.51 L9411.02 292.48 L7358.99 292.48  Z
  " fill="#ffffff" fill-rule="evenodd" fill-opacity="1"/>
<defs>
  <clipPath id="clip565">
    <rect x="7358" y="292" width="2053" height="2053"/>
  </clipPath>
</defs>
<polyline clip-path="url(#clip560)" style="stroke:#000000; stroke-width:4; stroke-opacity:1; fill:none" points="
  7358.99,2344.51 9411.02,2344.51 
  "/>
<polyline clip-path="url(#clip560)" style="stroke:#000000; stroke-width:4; stroke-opacity:1; fill:none" points="
  7358.99,292.48 9411.02,292.48 
  "/>
<path clip-path="url(#clip560)" d="M 0 0 M8237.38 2460.97 L8237.38 2479.38 L8259.31 2479.38 L8259.31 2487.65 L8237.38 2487.65 L8237.38 2522.84 Q8237.38 2530.77 8239.52 2533.02 Q8241.72 2535.28 8248.38 2535.28 L8259.31 2535.28 L8259.31 2544.19 L8248.38 2544.19 Q8236.05 2544.19 8231.36 2539.62 Q8226.68 2534.99 8226.68 2522.84 L8226.68 2487.65 L8218.86 2487.65 L8218.86 2479.38 L8226.68 2479.38 L8226.68 2460.97 L8237.38 2460.97 Z" fill="#000000" fill-rule="evenodd" fill-opacity="1" /><path clip-path="url(#clip560)" d="M 0 0 M8309.55 2490.37 L8383.73 2490.37 L8383.73 2500.09 L8309.55 2500.09 L8309.55 2490.37 M8309.55 2513.98 L8383.73 2513.98 L8383.73 2523.82 L8309.55 2523.82 L8309.55 2513.98 Z" fill="#000000" fill-rule="evenodd" fill-opacity="1" /><path clip-path="url(#clip560)" d="M 0 0 M8436.11 2534.35 L8455.2 2534.35 L8455.2 2468.44 L8434.43 2472.61 L8434.43 2461.96 L8455.09 2457.79 L8466.78 2457.79 L8466.78 2534.35 L8485.88 2534.35 L8485.88 2544.19 L8436.11 2544.19 L8436.11 2534.35 Z" fill="#000000" fill-rule="evenodd" fill-opacity="1" /><path clip-path="url(#clip560)" d="M 0 0 M8495.6 2457.79 L8551.15 2457.79 L8551.15 2462.77 L8519.79 2544.19 L8507.58 2544.19 L8537.09 2467.63 L8495.6 2467.63 L8495.6 2457.79 Z" fill="#000000" fill-rule="evenodd" fill-opacity="1" /><polyline clip-path="url(#clip560)" style="stroke:#000000; stroke-width:4; stroke-opacity:1; fill:none" points="
  7358.99,2344.51 7358.99,292.48 
  "/>
<polyline clip-path="url(#clip560)" style="stroke:#000000; stroke-width:4; stroke-opacity:1; fill:none" points="
  9411.02,2344.51 9411.02,292.48 
  "/>
<path clip-path="url(#clip560)" d="M 0 0 M7583.16 13.7499 Q7575.41 27.06 7571.64 40.0808 Q7567.88 53.1016 7567.88 66.4696 Q7567.88 79.8375 7571.64 92.974 Q7575.46 106.053 7583.16 119.305 L7573.9 119.305 Q7565.22 105.705 7560.88 92.5689 Q7556.6 79.4324 7556.6 66.4696 Q7556.6 53.5645 7560.88 40.4859 Q7565.16 27.4073 7573.9 13.7499 L7583.16 13.7499 Z" fill="#000000" fill-rule="evenodd" fill-opacity="1" /><path clip-path="url(#clip560)" d="M 0 0 M7594.33 38.8655 L7604.98 38.8655 L7604.98 103.68 L7594.33 103.68 L7594.33 38.8655 M7594.33 13.6342 L7604.98 13.6342 L7604.98 27.1179 L7594.33 27.1179 L7594.33 13.6342 Z" fill="#000000" fill-rule="evenodd" fill-opacity="1" /><path clip-path="url(#clip560)" d="M 0 0 M7608.51 38.8655 L7619.79 38.8655 L7640.05 93.2634 L7660.3 38.8655 L7671.59 38.8655 L7647.28 103.68 L7632.81 103.68 L7608.51 38.8655 Z" fill="#000000" fill-rule="evenodd" fill-opacity="1" /><path clip-path="url(#clip560)" d="M 0 0 M7681.08 13.7499 L7690.34 13.7499 Q7699.02 27.4073 7703.3 40.4859 Q7707.64 53.5645 7707.64 66.4696 Q7707.64 79.4324 7703.3 92.5689 Q7699.02 105.705 7690.34 119.305 L7681.08 119.305 Q7688.77 106.053 7692.53 92.974 Q7696.35 79.8375 7696.35 66.4696 Q7696.35 53.1016 7692.53 40.0808 Q7688.77 27.06 7681.08 13.7499 Z" fill="#000000" fill-rule="evenodd" fill-opacity="1" /><path clip-path="url(#clip560)" d="M 0 0 M7785.82 28.7961 L7769.96 71.7936 L7801.74 71.7936 L7785.82 28.7961 M7779.22 17.28 L7792.48 17.28 L7825.4 103.68 L7813.25 103.68 L7805.38 81.5158 L7766.43 81.5158 L7758.56 103.68 L7746.24 103.68 L7779.22 17.28 Z" fill="#000000" fill-rule="evenodd" fill-opacity="1" /><path clip-path="url(#clip560)" d="M 0 0 M7879.22 70.5205 Q7879.22 58.9464 7874.42 52.5807 Q7869.67 46.215 7861.05 46.215 Q7852.49 46.215 7847.68 52.5807 Q7842.94 58.9464 7842.94 70.5205 Q7842.94 82.0366 7847.68 88.4023 Q7852.49 94.768 7861.05 94.768 Q7869.67 94.768 7874.42 88.4023 Q7879.22 82.0366 7879.22 70.5205 M7889.87 95.6361 Q7889.87 112.187 7882.52 120.231 Q7875.17 128.333 7860.01 128.333 Q7854.4 128.333 7849.42 127.465 Q7844.44 126.654 7839.76 124.918 L7839.76 114.56 Q7844.44 117.106 7849.02 118.321 Q7853.59 119.536 7858.33 119.536 Q7868.81 119.536 7874.02 114.039 Q7879.22 108.599 7879.22 97.5458 L7879.22 92.2796 Q7875.92 98.0087 7870.77 100.844 Q7865.62 103.68 7858.45 103.68 Q7846.53 103.68 7839.24 94.5944 Q7831.94 85.5088 7831.94 70.5205 Q7831.94 55.4742 7839.24 46.3886 Q7846.53 37.303 7858.45 37.303 Q7865.62 37.303 7870.77 40.1387 Q7875.92 42.9743 7879.22 48.7034 L7879.22 38.8655 L7889.87 38.8655 L7889.87 95.6361 Z" fill="#000000" fill-rule="evenodd" fill-opacity="1" /><path clip-path="url(#clip560)" d="M 0 0 M7956.48 68.6107 L7956.48 73.819 L7907.52 73.819 Q7908.22 84.8144 7914.12 90.6014 Q7920.08 96.3305 7930.67 96.3305 Q7936.8 96.3305 7942.53 94.8259 Q7948.32 93.3213 7953.99 90.312 L7953.99 100.381 Q7948.26 102.812 7942.24 104.085 Q7936.23 105.358 7930.03 105.358 Q7914.52 105.358 7905.44 96.3305 Q7896.41 87.3028 7896.41 71.9093 Q7896.41 55.9951 7904.98 46.678 Q7913.6 37.303 7928.18 37.303 Q7941.26 37.303 7948.84 45.7521 Q7956.48 54.1432 7956.48 68.6107 M7945.83 65.4858 Q7945.72 56.7474 7940.91 51.5391 Q7936.17 46.3308 7928.3 46.3308 Q7919.39 46.3308 7914 51.3655 Q7908.68 56.4002 7907.87 65.5436 L7945.83 65.4858 Z" fill="#000000" fill-rule="evenodd" fill-opacity="1" /><path clip-path="url(#clip560)" d="M 0 0 M8021.53 64.5598 L8021.53 103.68 L8010.88 103.68 L8010.88 64.9071 Q8010.88 55.7057 8007.29 51.134 Q8003.7 46.5623 7996.53 46.5623 Q7987.9 46.5623 7982.93 52.0599 Q7977.95 57.5576 7977.95 67.0483 L7977.95 103.68 L7967.24 103.68 L7967.24 38.8655 L7977.95 38.8655 L7977.95 48.9349 Q7981.77 43.09 7986.92 40.1965 Q7992.13 37.303 7998.9 37.303 Q8010.07 37.303 8015.8 44.2474 Q8021.53 51.134 8021.53 64.5598 Z" fill="#000000" fill-rule="evenodd" fill-opacity="1" /><path clip-path="url(#clip560)" d="M 0 0 M8043.23 20.4629 L8043.23 38.8655 L8065.16 38.8655 L8065.16 47.141 L8043.23 47.141 L8043.23 82.3259 Q8043.23 90.2541 8045.37 92.5111 Q8047.57 94.768 8054.22 94.768 L8065.16 94.768 L8065.16 103.68 L8054.22 103.68 Q8041.9 103.68 8037.21 99.1083 Q8032.52 94.4787 8032.52 82.3259 L8032.52 47.141 L8024.71 47.141 L8024.71 38.8655 L8032.52 38.8655 L8032.52 20.4629 L8043.23 20.4629 Z" fill="#000000" fill-rule="evenodd" fill-opacity="1" /><path clip-path="url(#clip560)" d="M 0 0 M8160.65 41.3539 L8160.65 51.3076 Q8156.13 48.8192 8151.56 47.6039 Q8147.05 46.3308 8142.42 46.3308 Q8132.06 46.3308 8126.33 52.928 Q8120.6 59.4673 8120.6 71.3306 Q8120.6 83.194 8126.33 89.7912 Q8132.06 96.3305 8142.42 96.3305 Q8147.05 96.3305 8151.56 95.1152 Q8156.13 93.8421 8160.65 91.3537 L8160.65 101.192 Q8156.19 103.275 8151.39 104.317 Q8146.64 105.358 8141.26 105.358 Q8126.62 105.358 8118 96.1569 Q8109.37 86.9556 8109.37 71.3306 Q8109.37 55.4742 8118.05 46.3886 Q8126.79 37.303 8141.95 37.303 Q8146.87 37.303 8151.56 38.3447 Q8156.25 39.3285 8160.65 41.3539 Z" fill="#000000" fill-rule="evenodd" fill-opacity="1" /><path clip-path="url(#clip560)" d="M 0 0 M8196.93 46.3308 Q8188.37 46.3308 8183.39 53.0437 Q8178.41 59.6988 8178.41 71.3306 Q8178.41 82.9625 8183.33 89.6754 Q8188.31 96.3305 8196.93 96.3305 Q8205.44 96.3305 8210.41 89.6176 Q8215.39 82.9046 8215.39 71.3306 Q8215.39 59.8145 8210.41 53.1016 Q8205.44 46.3308 8196.93 46.3308 M8196.93 37.303 Q8210.82 37.303 8218.75 46.3308 Q8226.68 55.3585 8226.68 71.3306 Q8226.68 87.2449 8218.75 96.3305 Q8210.82 105.358 8196.93 105.358 Q8182.98 105.358 8175.06 96.3305 Q8167.18 87.2449 8167.18 71.3306 Q8167.18 55.3585 8175.06 46.3308 Q8182.98 37.303 8196.93 37.303 Z" fill="#000000" fill-rule="evenodd" fill-opacity="1" /><path clip-path="url(#clip560)" d="M 0 0 M8275.4 48.8192 Q8273.61 47.7775 8271.47 47.3146 Q8269.38 46.7937 8266.84 46.7937 Q8257.81 46.7937 8252.95 52.6965 Q8248.15 58.5414 8248.15 69.5367 L8248.15 103.68 L8237.44 103.68 L8237.44 38.8655 L8248.15 38.8655 L8248.15 48.9349 Q8251.5 43.0322 8256.88 40.1965 Q8262.27 37.303 8269.96 37.303 Q8271.06 37.303 8272.39 37.4767 Q8273.72 37.5924 8275.34 37.8817 L8275.4 48.8192 Z" fill="#000000" fill-rule="evenodd" fill-opacity="1" /><path clip-path="url(#clip560)" d="M 0 0 M8322.05 48.8192 Q8320.25 47.7775 8318.11 47.3146 Q8316.03 46.7937 8313.48 46.7937 Q8304.45 46.7937 8299.59 52.6965 Q8294.79 58.5414 8294.79 69.5367 L8294.79 103.68 L8284.08 103.68 L8284.08 38.8655 L8294.79 38.8655 L8294.79 48.9349 Q8298.14 43.0322 8303.53 40.1965 Q8308.91 37.303 8316.61 37.303 Q8317.7 37.303 8319.04 37.4767 Q8320.37 37.5924 8321.99 37.8817 L8322.05 48.8192 Z" fill="#000000" fill-rule="evenodd" fill-opacity="1" /><path clip-path="url(#clip560)" d="M 0 0 M8386.05 68.6107 L8386.05 73.819 L8337.09 73.819 Q8337.79 84.8144 8343.69 90.6014 Q8349.65 96.3305 8360.24 96.3305 Q8366.37 96.3305 8372.1 94.8259 Q8377.89 93.3213 8383.56 90.312 L8383.56 100.381 Q8377.83 102.812 8371.81 104.085 Q8365.8 105.358 8359.6 105.358 Q8344.09 105.358 8335.01 96.3305 Q8325.98 87.3028 8325.98 71.9093 Q8325.98 55.9951 8334.55 46.678 Q8343.17 37.303 8357.75 37.303 Q8370.83 37.303 8378.41 45.7521 Q8386.05 54.1432 8386.05 68.6107 M8375.4 65.4858 Q8375.29 56.7474 8370.48 51.5391 Q8365.74 46.3308 8357.87 46.3308 Q8348.95 46.3308 8343.57 51.3655 Q8338.25 56.4002 8337.44 65.5436 L8375.4 65.4858 Z" fill="#000000" fill-rule="evenodd" fill-opacity="1" /><path clip-path="url(#clip560)" d="M 0 0 M8443.86 41.3539 L8443.86 51.3076 Q8439.35 48.8192 8434.78 47.6039 Q8430.26 46.3308 8425.63 46.3308 Q8415.27 46.3308 8409.54 52.928 Q8403.82 59.4673 8403.82 71.3306 Q8403.82 83.194 8409.54 89.7912 Q8415.27 96.3305 8425.63 96.3305 Q8430.26 96.3305 8434.78 95.1152 Q8439.35 93.8421 8443.86 91.3537 L8443.86 101.192 Q8439.41 103.275 8434.6 104.317 Q8429.86 105.358 8424.48 105.358 Q8409.83 105.358 8401.21 96.1569 Q8392.59 86.9556 8392.59 71.3306 Q8392.59 55.4742 8401.27 46.3886 Q8410.01 37.303 8425.17 37.303 Q8430.09 37.303 8434.78 38.3447 Q8439.46 39.3285 8443.86 41.3539 Z" fill="#000000" fill-rule="evenodd" fill-opacity="1" /><path clip-path="url(#clip560)" d="M 0 0 M8465.56 20.4629 L8465.56 38.8655 L8487.5 38.8655 L8487.5 47.141 L8465.56 47.141 L8465.56 82.3259 Q8465.56 90.2541 8467.7 92.5111 Q8469.9 94.768 8476.56 94.768 L8487.5 94.768 L8487.5 103.68 L8476.56 103.68 Q8464.23 103.68 8459.54 99.1083 Q8454.86 94.4787 8454.86 82.3259 L8454.86 47.141 L8447.04 47.141 L8447.04 38.8655 L8454.86 38.8655 L8454.86 20.4629 L8465.56 20.4629 Z" fill="#000000" fill-rule="evenodd" fill-opacity="1" /><path clip-path="url(#clip560)" d="M 0 0 M8539.98 40.7752 L8539.98 50.8446 Q8535.47 48.5298 8530.61 47.3724 Q8525.75 46.215 8520.54 46.215 Q8512.61 46.215 8508.62 48.6456 Q8504.68 51.0761 8504.68 55.9372 Q8504.68 59.6409 8507.52 61.7821 Q8510.35 63.8654 8518.92 65.7751 L8522.57 66.5853 Q8533.91 69.0158 8538.65 73.4718 Q8543.46 77.87 8543.46 85.7982 Q8543.46 94.8259 8536.28 100.092 Q8529.16 105.358 8516.66 105.358 Q8511.45 105.358 8505.78 104.317 Q8500.17 103.333 8493.92 101.307 L8493.92 90.312 Q8499.82 93.3791 8505.55 94.9416 Q8511.28 96.4462 8516.89 96.4462 Q8524.42 96.4462 8528.47 93.9 Q8532.52 91.2958 8532.52 86.6083 Q8532.52 82.2681 8529.57 79.9533 Q8526.67 77.6385 8516.78 75.4973 L8513.07 74.6292 Q8503.18 72.5459 8498.78 68.2635 Q8494.38 63.9233 8494.38 56.4002 Q8494.38 47.2567 8500.86 42.2799 Q8507.35 37.303 8519.27 37.303 Q8525.17 37.303 8530.38 38.1711 Q8535.59 39.0391 8539.98 40.7752 Z" fill="#000000" fill-rule="evenodd" fill-opacity="1" /><path clip-path="url(#clip560)" d="M 0 0 M8602.83 20.4629 L8602.83 38.8655 L8624.76 38.8655 L8624.76 47.141 L8602.83 47.141 L8602.83 82.3259 Q8602.83 90.2541 8604.97 92.5111 Q8607.17 94.768 8613.83 94.768 L8624.76 94.768 L8624.76 103.68 L8613.83 103.68 Q8601.5 103.68 8596.81 99.1083 Q8592.12 94.4787 8592.12 82.3259 L8592.12 47.141 L8584.31 47.141 L8584.31 38.8655 L8592.12 38.8655 L8592.12 20.4629 L8602.83 20.4629 Z" fill="#000000" fill-rule="evenodd" fill-opacity="1" /><path clip-path="url(#clip560)" d="M 0 0 M8689.81 64.5598 L8689.81 103.68 L8679.16 103.68 L8679.16 64.9071 Q8679.16 55.7057 8675.57 51.134 Q8671.99 46.5623 8664.81 46.5623 Q8656.19 46.5623 8651.21 52.0599 Q8646.23 57.5576 8646.23 67.0483 L8646.23 103.68 L8635.53 103.68 L8635.53 13.6342 L8646.23 13.6342 L8646.23 48.9349 Q8650.05 43.09 8655.2 40.1965 Q8660.41 37.303 8667.18 37.303 Q8678.35 37.303 8684.08 44.2474 Q8689.81 51.134 8689.81 64.5598 Z" fill="#000000" fill-rule="evenodd" fill-opacity="1" /><path clip-path="url(#clip560)" d="M 0 0 M8756.42 68.6107 L8756.42 73.819 L8707.46 73.819 Q8708.15 84.8144 8714.06 90.6014 Q8720.02 96.3305 8730.61 96.3305 Q8736.74 96.3305 8742.47 94.8259 Q8748.26 93.3213 8753.93 90.312 L8753.93 100.381 Q8748.2 102.812 8742.18 104.085 Q8736.16 105.358 8729.97 105.358 Q8714.46 105.358 8705.38 96.3305 Q8696.35 87.3028 8696.35 71.9093 Q8696.35 55.9951 8704.91 46.678 Q8713.54 37.303 8728.12 37.303 Q8741.2 37.303 8748.78 45.7521 Q8756.42 54.1432 8756.42 68.6107 M8745.77 65.4858 Q8745.65 56.7474 8740.85 51.5391 Q8736.11 46.3308 8728.24 46.3308 Q8719.32 46.3308 8713.94 51.3655 Q8708.62 56.4002 8707.81 65.5436 L8745.77 65.4858 Z" fill="#000000" fill-rule="evenodd" fill-opacity="1" /><path clip-path="url(#clip560)" d="M 0 0 M8855.72 51.3076 Q8859.72 44.1317 8865.27 40.7174 Q8870.83 37.303 8878.35 37.303 Q8888.48 37.303 8893.98 44.4211 Q8899.47 51.4812 8899.47 64.5598 L8899.47 103.68 L8888.77 103.68 L8888.77 64.9071 Q8888.77 55.59 8885.47 51.0761 Q8882.17 46.5623 8875.4 46.5623 Q8867.12 46.5623 8862.32 52.0599 Q8857.52 57.5576 8857.52 67.0483 L8857.52 103.68 L8846.81 103.68 L8846.81 64.9071 Q8846.81 55.5321 8843.51 51.0761 Q8840.21 46.5623 8833.33 46.5623 Q8825.17 46.5623 8820.36 52.1178 Q8815.56 57.6154 8815.56 67.0483 L8815.56 103.68 L8804.86 103.68 L8804.86 38.8655 L8815.56 38.8655 L8815.56 48.9349 Q8819.21 42.9743 8824.3 40.1387 Q8829.39 37.303 8836.39 37.303 Q8843.45 37.303 8848.37 40.891 Q8853.35 44.4789 8855.72 51.3076 Z" fill="#000000" fill-rule="evenodd" fill-opacity="1" /><path clip-path="url(#clip560)" d="M 0 0 M8910.64 38.8655 L8921.29 38.8655 L8921.29 103.68 L8910.64 103.68 L8910.64 38.8655 M8910.64 13.6342 L8921.29 13.6342 L8921.29 27.1179 L8910.64 27.1179 L8910.64 13.6342 Z" fill="#000000" fill-rule="evenodd" fill-opacity="1" /><path clip-path="url(#clip560)" d="M 0 0 M8973.78 40.7752 L8973.78 50.8446 Q8969.26 48.5298 8964.4 47.3724 Q8959.54 46.215 8954.33 46.215 Q8946.41 46.215 8942.41 48.6456 Q8938.48 51.0761 8938.48 55.9372 Q8938.48 59.6409 8941.31 61.7821 Q8944.15 63.8654 8952.71 65.7751 L8956.36 66.5853 Q8967.7 69.0158 8972.45 73.4718 Q8977.25 77.87 8977.25 85.7982 Q8977.25 94.8259 8970.07 100.092 Q8962.96 105.358 8950.46 105.358 Q8945.25 105.358 8939.58 104.317 Q8933.96 103.333 8927.71 101.307 L8927.71 90.312 Q8933.62 93.3791 8939.35 94.9416 Q8945.07 96.4462 8950.69 96.4462 Q8958.21 96.4462 8962.26 93.9 Q8966.31 91.2958 8966.31 86.6083 Q8966.31 82.2681 8963.36 79.9533 Q8960.47 77.6385 8950.57 75.4973 L8946.87 74.6292 Q8936.97 72.5459 8932.57 68.2635 Q8928.18 63.9233 8928.18 56.4002 Q8928.18 47.2567 8934.66 42.2799 Q8941.14 37.303 8953.06 37.303 Q8958.96 37.303 8964.17 38.1711 Q8969.38 39.0391 8973.78 40.7752 Z" fill="#000000" fill-rule="evenodd" fill-opacity="1" /><path clip-path="url(#clip560)" d="M 0 0 M8998.95 20.4629 L8998.95 38.8655 L9020.88 38.8655 L9020.88 47.141 L8998.95 47.141 L8998.95 82.3259 Q8998.95 90.2541 9001.09 92.5111 Q9003.29 94.768 9009.95 94.768 L9020.88 94.768 L9020.88 103.68 L9009.95 103.68 Q8997.62 103.68 8992.93 99.1083 Q8988.25 94.4787 8988.25 82.3259 L8988.25 47.141 L8980.43 47.141 L8980.43 38.8655 L8988.25 38.8655 L8988.25 20.4629 L8998.95 20.4629 Z" fill="#000000" fill-rule="evenodd" fill-opacity="1" /><path clip-path="url(#clip560)" d="M 0 0 M9061.51 71.0992 Q9048.6 71.0992 9043.63 74.0505 Q9038.65 77.0019 9038.65 84.1199 Q9038.65 89.7912 9042.35 93.1476 Q9046.12 96.4462 9052.54 96.4462 Q9061.39 96.4462 9066.72 90.1963 Q9072.1 83.8884 9072.1 73.4718 L9072.1 71.0992 L9061.51 71.0992 M9082.75 66.701 L9082.75 103.68 L9072.1 103.68 L9072.1 93.8421 Q9068.45 99.7448 9063.01 102.58 Q9057.57 105.358 9049.7 105.358 Q9039.75 105.358 9033.85 99.8027 Q9028 94.1893 9028 84.8144 Q9028 73.8769 9035.29 68.3214 Q9042.64 62.7659 9057.17 62.7659 L9072.1 62.7659 L9072.1 61.7242 Q9072.1 54.3747 9067.24 50.3817 Q9062.43 46.3308 9053.7 46.3308 Q9048.14 46.3308 9042.87 47.6618 Q9037.61 48.9928 9032.75 51.6548 L9032.75 41.8169 Q9038.59 39.56 9044.09 38.4604 Q9049.59 37.303 9054.8 37.303 Q9068.86 37.303 9075.8 44.5947 Q9082.75 51.8863 9082.75 66.701 Z" fill="#000000" fill-rule="evenodd" fill-opacity="1" /><path clip-path="url(#clip560)" d="M 0 0 M9093.51 13.6342 L9104.22 13.6342 L9104.22 66.8168 L9135.99 38.8655 L9149.59 38.8655 L9115.21 69.1894 L9151.03 103.68 L9137.15 103.68 L9104.22 72.0251 L9104.22 103.68 L9093.51 103.68 L9093.51 13.6342 Z" fill="#000000" fill-rule="evenodd" fill-opacity="1" /><path clip-path="url(#clip560)" d="M 0 0 M9213.42 68.6107 L9213.42 73.819 L9164.46 73.819 Q9165.15 84.8144 9171.06 90.6014 Q9177.02 96.3305 9187.61 96.3305 Q9193.74 96.3305 9199.47 94.8259 Q9205.26 93.3213 9210.93 90.312 L9210.93 100.381 Q9205.2 102.812 9199.18 104.085 Q9193.16 105.358 9186.97 105.358 Q9171.46 105.358 9162.38 96.3305 Q9153.35 87.3028 9153.35 71.9093 Q9153.35 55.9951 9161.91 46.678 Q9170.54 37.303 9185.12 37.303 Q9198.2 37.303 9205.78 45.7521 Q9213.42 54.1432 9213.42 68.6107 M9202.77 65.4858 Q9202.65 56.7474 9197.85 51.5391 Q9193.11 46.3308 9185.24 46.3308 Q9176.32 46.3308 9170.94 51.3655 Q9165.62 56.4002 9164.81 65.5436 L9202.77 65.4858 Z" fill="#000000" fill-rule="evenodd" fill-opacity="1" /><path clip-path="url(#clip565)" d="
M7358.99 2344.51 L9411.02 2344.51 L9411.02 2116.51 L7358.99 2116.51 L7358.99 2344.51 L7358.99 2344.51  Z
  " fill="#b3b3b3" fill-rule="evenodd" fill-opacity="1"/>
<polyline clip-path="url(#clip565)" style="stroke:#000000; stroke-width:4; stroke-opacity:0; fill:none" points="
  7358.99,2344.51 9411.02,2344.51 9411.02,2116.51 7358.99,2116.51 7358.99,2344.51 
  "/>
<path clip-path="url(#clip565)" d="
M7415.99 2116.51 L7644 2116.51 L7644 1888.5 L7415.99 1888.5 L7415.99 2116.51 L7415.99 2116.51  Z
  " fill="#0c0786" fill-rule="evenodd" fill-opacity="1"/>
<polyline clip-path="url(#clip565)" style="stroke:#000000; stroke-width:4; stroke-opacity:0; fill:none" points="
  7415.99,2116.51 7644,2116.51 7644,1888.5 7415.99,1888.5 7415.99,2116.51 
  "/>
<path clip-path="url(#clip565)" d="
M8784.01 1888.5 L9012.02 1888.5 L9012.02 1660.5 L8784.01 1660.5 L8784.01 1888.5 L8784.01 1888.5  Z
  " fill="#3f039c" fill-rule="evenodd" fill-opacity="1"/>
<polyline clip-path="url(#clip565)" style="stroke:#000000; stroke-width:4; stroke-opacity:0; fill:none" points="
  8784.01,1888.5 9012.02,1888.5 9012.02,1660.5 8784.01,1660.5 8784.01,1888.5 
  "/>
<path clip-path="url(#clip565)" d="
M8100 2116.51 L8328.01 2116.51 L8328.01 1888.5 L8100 1888.5 L8100 2116.51 L8100 2116.51  Z
  " fill="#6500a7" fill-rule="evenodd" fill-opacity="1"/>
<polyline clip-path="url(#clip565)" style="stroke:#000000; stroke-width:4; stroke-opacity:0; fill:none" points="
  8100,2116.51 8328.01,2116.51 8328.01,1888.5 8100,1888.5 8100,2116.51 
  "/>
<path clip-path="url(#clip565)" d="
M8442.01 2116.51 L8670.01 2116.51 L8670.01 1888.5 L8442.01 1888.5 L8442.01 2116.51 L8442.01 2116.51  Z
  " fill="#8908a5" fill-rule="evenodd" fill-opacity="1"/>
<polyline clip-path="url(#clip565)" style="stroke:#000000; stroke-width:4; stroke-opacity:0; fill:none" points="
  8442.01,2116.51 8670.01,2116.51 8670.01,1888.5 8442.01,1888.5 8442.01,2116.51 
  "/>
<path clip-path="url(#clip565)" d="
M8784.01 2116.51 L9012.02 2116.51 L9012.02 1888.5 L8784.01 1888.5 L8784.01 2116.51 L8784.01 2116.51  Z
  " fill="#a92395" fill-rule="evenodd" fill-opacity="1"/>
<polyline clip-path="url(#clip565)" style="stroke:#000000; stroke-width:4; stroke-opacity:0; fill:none" points="
  8784.01,2116.51 9012.02,2116.51 9012.02,1888.5 8784.01,1888.5 8784.01,2116.51 
  "/>
<path clip-path="url(#clip565)" d="
M8784.01 1660.5 L9012.02 1660.5 L9012.02 1432.5 L8784.01 1432.5 L8784.01 1660.5 L8784.01 1660.5  Z
  " fill="#c33e7f" fill-rule="evenodd" fill-opacity="1"/>
<polyline clip-path="url(#clip565)" style="stroke:#000000; stroke-width:4; stroke-opacity:0; fill:none" points="
  8784.01,1660.5 9012.02,1660.5 9012.02,1432.5 8784.01,1432.5 8784.01,1660.5 
  "/>
<path clip-path="url(#clip560)" d="M 0 0 M7550.5 1987.21 L7550.5 1995.17 Q7546.89 1993.18 7543.24 1992.21 Q7539.62 1991.19 7535.92 1991.19 Q7527.63 1991.19 7523.05 1996.46 Q7518.47 2001.7 7518.47 2011.19 Q7518.47 2020.68 7523.05 2025.96 Q7527.63 2031.19 7535.92 2031.19 Q7539.62 2031.19 7543.24 2030.21 Q7546.89 2029.2 7550.5 2027.21 L7550.5 2035.08 Q7546.94 2036.74 7543.1 2037.58 Q7539.3 2038.41 7534.99 2038.41 Q7523.28 2038.41 7516.38 2031.05 Q7509.49 2023.69 7509.49 2011.19 Q7509.49 1998.5 7516.43 1991.23 Q7523.42 1983.96 7535.55 1983.96 Q7539.49 1983.96 7543.24 1984.8 Q7546.99 1985.59 7550.5 1987.21 Z" fill="#ffffff" fill-rule="evenodd" fill-opacity="1" /><path clip-path="url(#clip560)" d="M 0 0 M8922.04 1781.01 L8922.04 1785.17 L8882.88 1785.17 Q8883.43 1793.97 8888.15 1798.6 Q8892.92 1803.18 8901.4 1803.18 Q8906.3 1803.18 8910.89 1801.98 Q8915.52 1800.78 8920.05 1798.37 L8920.05 1806.42 Q8915.47 1808.37 8910.65 1809.39 Q8905.84 1810.41 8900.89 1810.41 Q8888.48 1810.41 8881.21 1803.18 Q8873.99 1795.96 8873.99 1783.65 Q8873.99 1770.92 8880.84 1763.46 Q8887.74 1755.96 8899.4 1755.96 Q8909.87 1755.96 8915.93 1762.72 Q8922.04 1769.43 8922.04 1781.01 M8913.52 1778.51 Q8913.43 1771.52 8909.59 1767.35 Q8905.79 1763.18 8899.5 1763.18 Q8892.37 1763.18 8888.06 1767.21 Q8883.8 1771.24 8883.15 1778.55 L8913.52 1778.51 Z" fill="#ffffff" fill-rule="evenodd" fill-opacity="1" /><path clip-path="url(#clip560)" d="M 0 0 M8214.01 1991.19 Q8207.15 1991.19 8203.17 1996.56 Q8199.19 2001.88 8199.19 2011.19 Q8199.19 2020.49 8203.13 2025.86 Q8207.11 2031.19 8214.01 2031.19 Q8220.81 2031.19 8224.79 2025.82 Q8228.77 2020.45 8228.77 2011.19 Q8228.77 2001.97 8224.79 1996.6 Q8220.81 1991.19 8214.01 1991.19 M8214.01 1983.96 Q8225.12 1983.96 8231.46 1991.19 Q8237.8 1998.41 8237.8 2011.19 Q8237.8 2023.92 8231.46 2031.19 Q8225.12 2038.41 8214.01 2038.41 Q8202.85 2038.41 8196.51 2031.19 Q8190.21 2023.92 8190.21 2011.19 Q8190.21 1998.41 8196.51 1991.19 Q8202.85 1983.96 8214.01 1983.96 Z" fill="#ffffff" fill-rule="evenodd" fill-opacity="1" /><path clip-path="url(#clip560)" d="M 0 0 M8541.38 2029.29 L8541.38 2056.79 L8532.82 2056.79 L8532.82 1985.21 L8541.38 1985.21 L8541.38 1993.09 Q8544.07 1988.46 8548.14 1986.23 Q8552.26 1983.96 8557.95 1983.96 Q8567.4 1983.96 8573.28 1991.46 Q8579.2 1998.96 8579.2 2011.19 Q8579.2 2023.41 8573.28 2030.91 Q8567.4 2038.41 8557.95 2038.41 Q8552.26 2038.41 8548.14 2036.19 Q8544.07 2033.92 8541.38 2029.29 M8570.36 2011.19 Q8570.36 2001.79 8566.47 1996.46 Q8562.63 1991.09 8555.87 1991.09 Q8549.11 1991.09 8545.22 1996.46 Q8541.38 2001.79 8541.38 2011.19 Q8541.38 2020.59 8545.22 2025.96 Q8549.11 2031.28 8555.87 2031.28 Q8562.63 2031.28 8566.47 2025.96 Q8570.36 2020.59 8570.36 2011.19 Z" fill="#ffffff" fill-rule="evenodd" fill-opacity="1" /><path clip-path="url(#clip560)" d="M 0 0 M8913.2 1993.18 Q8911.77 1992.34 8910.05 1991.97 Q8908.39 1991.56 8906.35 1991.56 Q8899.13 1991.56 8895.24 1996.28 Q8891.4 2000.96 8891.4 2009.75 L8891.4 2037.07 L8882.83 2037.07 L8882.83 1985.21 L8891.4 1985.21 L8891.4 1993.27 Q8894.08 1988.55 8898.39 1986.28 Q8902.69 1983.96 8908.85 1983.96 Q8909.73 1983.96 8910.79 1984.1 Q8911.86 1984.2 8913.15 1984.43 L8913.2 1993.18 Z" fill="#ffffff" fill-rule="evenodd" fill-opacity="1" /><path clip-path="url(#clip560)" d="M 0 0 M8863.22 1529.21 L8871.74 1529.21 L8882.39 1569.67 L8892.99 1529.21 L8903.04 1529.21 L8913.69 1569.67 L8924.29 1529.21 L8932.81 1529.21 L8919.24 1581.06 L8909.2 1581.06 L8898.04 1538.56 L8886.84 1581.06 L8876.79 1581.06 L8863.22 1529.21 Z" fill="#ffffff" fill-rule="evenodd" fill-opacity="1" /></svg>
